<?xml version="1.0" standalone="no"?>
<!DOCTYPE svg PUBLIC "-//W3C//DTD SVG 1.1//EN" "http://www.w3.org/Graphics/SVG/1.1/DTD/svg11.dtd" >
<svg xmlns="http://www.w3.org/2000/svg" xmlns:xlink="http://www.w3.org/1999/xlink" version="1.1">
<metadata></metadata>
<defs>
<font id="sporting_grotesqueregular" horiz-adv-x="1638" >
<font-face units-per-em="2048" ascent="1591" descent="-457" />
<missing-glyph horiz-adv-x="888" />
<glyph unicode="&#xfb01;" horiz-adv-x="1445" d="M20 983v154h328q-6 2 -15.5 5.5t-33.5 18.5t-43 34t-34 53t-15 75q0 54 25.5 104t77.5 94.5t144.5 71.5t213.5 27q99 0 185 -18.5t144.5 -48.5t106.5 -66t76.5 -72t48 -66t26.5 -49l7 -18l-254 -74q-2 10 -7.5 27t-30.5 60t-58.5 76t-96 60t-139.5 27q-106 0 -168 -47 t-62 -129q0 -40 15.5 -76t30.5 -52l16 -17h725v-1137h-246v983h-467v-983h-246v983h-254z" />
<glyph unicode="&#xfb02;" horiz-adv-x="1417" d="M20 983v154h326q-8 3 -17.5 6.5t-33.5 19t-41.5 34.5t-32 52.5t-14.5 73.5q0 53 24 104t71 95t127 71t181 27q81 0 150 -21t109 -50.5t68.5 -59.5t38.5 -51l11 -21v152q58 0 119.5 5.5t93.5 11.5l33 5v-1591h-246v983h-467v-983h-246v983h-254zM446 1286q0 -40 15.5 -77 t30.5 -55l16 -17h479q0 7 -1.5 18.5t-9.5 44.5t-20.5 63.5t-38 67.5t-58.5 63.5t-85 45t-115 18.5q-96 0 -154.5 -46t-58.5 -126z" />
<glyph horiz-adv-x="0" />
<glyph horiz-adv-x="682" />
<glyph horiz-adv-x="0" />
<glyph horiz-adv-x="0" />
<glyph unicode="&#xd;" horiz-adv-x="888" />
<glyph unicode=" "  horiz-adv-x="888" />
<glyph unicode="&#x09;" horiz-adv-x="888" />
<glyph unicode="&#xa0;" horiz-adv-x="888" />
<glyph unicode="!" horiz-adv-x="593" d="M164 0v297h266v-297h-266zM164 1591h266l-20 -1099h-226z" />
<glyph unicode="&#x22;" horiz-adv-x="901" d="M184 983v608h164v-608h-164zM553 983v608h164v-608h-164z" />
<glyph unicode="#" horiz-adv-x="1331" d="M82 477v103h244l65 307h-205v102h228l104 475h115l-105 -475h363l104 475h115l-104 -475h243v-102h-266l-68 -307h226v-103h-250l-105 -477h-110l104 477h-364l-105 -477h-112l104 477h-221zM438 580h365l65 307h-362z" />
<glyph unicode="$" d="M68 539l274 79q-1 -8 -1.5 -22t4.5 -55.5t17 -79.5t43 -86.5t75.5 -86t120.5 -68t173 -40.5v525l-227 53q-200 46 -303 152.5t-103 252.5q0 92 38 173t113 145t199 101.5t283 37.5v453h88v-455q99 -6 184 -25.5t145 -48.5t109.5 -64.5t80 -73.5t53.5 -75.5t34.5 -71 t18 -59t7.5 -40.5l1 -15l-274 -74q0 4 0.5 10.5t-1.5 27.5t-6.5 41.5t-16 49t-28 53.5t-44.5 52t-63 47.5t-87 37t-113 23.5v-475l242 -53q467 -105 467 -459q0 -145 -91 -249.5t-243 -155t-348 -50.5h-27v-428h-88v432q-152 12 -275 55.5t-200 102.5t-130 133t-75.5 141 t-25.5 132zM418 1188q0 -86 69 -134t211 -79l76 -17v459h-4q-160 0 -256 -63.5t-96 -165.5zM862 174h21q188 0 299.5 69t111.5 171q0 46 -16 80.5t-42.5 59t-75.5 46t-98 35.5t-128 33l-72 16v-510z" />
<glyph unicode="%" horiz-adv-x="1892" d="M41 1208q0 184 122 299t310 115t310 -115t122 -299t-122 -297.5t-310 -113.5t-310 113.5t-122 297.5zM166 1208q0 -139 80 -227t227 -88t227 88t80 227t-80 227.5t-227 88.5t-227 -88.5t-80 -227.5zM477 41l842 1565l98 -50l-846 -1562zM987 389q0 184 122 299t310 115 t310 -115t122 -299t-122 -298t-310 -114t-310 114t-122 298zM1112 389q0 -139 80 -227t227 -88t227 88t80 227t-80 227.5t-227 88.5t-227 -88.5t-80 -227.5z" />
<glyph unicode="&#x26;" horiz-adv-x="1726" d="M41 0v195l618 639q-265 323 -536 563v194h1378v-194l-569 -588q234 -291 450 -635h344v-174h-237q63 -108 117.5 -209.5t77.5 -148.5l24 -48l-270 -81q-74 199 -230 487h-1167zM317 174h793q-147 255 -319 488zM346 1417q230 -194 449 -444l430 444h-879z" />
<glyph unicode="'" horiz-adv-x="532" d="M184 983v608h164v-608h-164z" />
<glyph unicode="(" horiz-adv-x="780" d="M82 694q0 132 31 255t83.5 218t120 176t141.5 136t145.5 89t135.5 44v-84q-47 -10 -102 -39t-115.5 -77t-116 -119t-100.5 -157t-71.5 -201t-26.5 -241t26.5 -241t71.5 -200.5t100.5 -157t116 -119t115.5 -76.5t102 -39v-84q-77 12 -164 57t-175 126t-158.5 185t-115 248 t-44.5 301z" />
<glyph unicode=")" horiz-adv-x="780" d="M41 -139q47 10 102 39t115.5 76.5t116 119t100.5 157t71.5 200.5t26.5 241t-26.5 241t-71.5 201t-100.5 157t-116 119t-115.5 77t-102 39v84q64 -10 135.5 -44t145.5 -89t141.5 -136t120 -176t83.5 -218t31 -255q0 -157 -44.5 -301t-115 -248t-158.5 -185t-175 -126 t-164 -57v84z" />
<glyph unicode="*" horiz-adv-x="888" d="M145 1565v90l232 -21l-172 162l61 64l152 -183l-12 238h88l-11 -238l150 178l63 -61l-172 -158l228 19v-90l-232 16l176 -151l-63 -62l-150 170l11 -229h-88l18 227l-158 -172l-61 63l172 142z" />
<glyph unicode="+" horiz-adv-x="1331" d="M41 512v102h573v574h103v-574h573v-102h-573v-573h-103v573h-573z" />
<glyph unicode="," horiz-adv-x="634" d="M106 -307q7 4 20 12.5t46.5 38t61.5 62.5t56.5 85.5t39.5 108.5h-146v297h267v-246q0 -71 -17 -139t-41 -115t-48 -84t-41 -55l-17 -18z" />
<glyph unicode="-" horiz-adv-x="1028" d="M82 532v154h864v-154h-864z" />
<glyph unicode="." horiz-adv-x="634" d="M184 0v297h267v-297h-267z" />
<glyph unicode="/" horiz-adv-x="501" d="M-80 -195l557 1688l105 -33l-562 -1685z" />
<glyph unicode="0" d="M123 797q0 144 27.5 269t84 227t138.5 174.5t195.5 112.5t250.5 40q171 0 304.5 -61t219 -171.5t129.5 -260t44 -330.5t-44 -331.5t-129.5 -261t-219 -172t-304.5 -61.5t-304.5 61.5t-218.5 172.5t-129 261t-44 331zM403 797q0 -137 22.5 -247t70.5 -196t130 -133 t193 -47t193 47t130 133t70.5 196t22.5 247q0 136 -22.5 245.5t-70.5 195t-130 132.5t-193 47t-193 -47t-130 -132.5t-70.5 -195t-22.5 -245.5z" />
<glyph unicode="1" d="M225 0v174h615l-2 1243q0 -97 -15 -163.5t-54 -121t-109 -85.5t-176 -47.5t-259 -16.5v203q158 0 269 19.5t190.5 66t117.5 125t38 194.5h266v-1417h430v-174h-1311z" />
<glyph unicode="2" d="M184 0v154q21 9 57 25t140 69.5t198.5 110.5t209.5 144t198 174t140 197t57 216q0 143 -91.5 235t-273.5 92q-90 0 -159 -26t-109.5 -71.5t-61 -102.5t-20.5 -123q0 -60 20 -116t48.5 -93.5t57.5 -66.5t49 -42l20 -14l-275 -80q-8 6 -21 18t-46.5 52.5t-59 86 t-46.5 117.5t-21 148q0 94 39.5 184t114 165t198.5 121t278 46q307 0 473 -145t166 -377q0 -89 -28.5 -174.5t-73.5 -155t-112.5 -139t-132 -121t-146.5 -106.5t-142 -90t-131.5 -76.5t-103.5 -61.5h901v-174h-1311z" />
<glyph unicode="3" d="M102 522l275 80q4 -1 -0.5 -23.5t5.5 -61.5t21.5 -83.5t46.5 -91t80.5 -84t125 -61t178.5 -23.5q188 0 294.5 72.5t106.5 208.5q0 274 -442 274h-103v174h103q183 0 292 70t109 192q0 111 -93.5 181.5t-246.5 70.5q-86 0 -154.5 -20.5t-108.5 -54t-68.5 -73t-40 -79.5 t-17 -73.5t-5.5 -54.5l1 -20l-275 82q1 10 4.5 28t22 69.5t45.5 98.5t80 104t121 98.5t173.5 69.5t231.5 28q271 0 441 -120.5t170 -297.5q0 -69 -23 -126t-56.5 -92t-80.5 -61.5t-87 -39t-83.5 -20t-62.5 -8.5t-31 -1q14 0 34 -1t68.5 -9.5t92 -22.5t95 -44.5t88.5 -71 t62 -106t25 -146.5q0 -98 -36 -178.5t-98.5 -136t-148.5 -93.5t-184.5 -56t-208.5 -18q-115 0 -214 19t-168.5 50.5t-127 73t-93.5 87.5t-63 91.5t-40 87t-21 73t-9 50.5z" />
<glyph unicode="4" d="M82 385v256l864 950h352v-1032h320v-174h-320v-385h-266v385h-950zM289 559h743v838z" />
<glyph unicode="5" d="M102 522l275 80q0 -5 -0.5 -15t2 -39t8 -57.5t19.5 -67t35 -71.5t56 -67t80 -57.5t110.5 -38.5t143.5 -15q183 0 293.5 96.5t110.5 251.5t-110.5 250.5t-293.5 95.5q-68 0 -127.5 -10t-95.5 -24.5t-63 -29t-38 -24.5l-11 -10h-273l146 821h1073v-174h-846l-96 -553 q4 8 13 22t45 50t81 63t124.5 49.5t172.5 22.5q114 0 219.5 -40t185 -110.5t127.5 -174.5t48 -224q0 -171 -86 -296.5t-240 -190t-359 -64.5q-145 0 -263.5 30.5t-192 79t-128.5 107t-81.5 117.5t-42.5 107.5t-19 79.5z" />
<glyph unicode="6" d="M123 797q0 179 50.5 330t143.5 260.5t232.5 171t310.5 61.5q86 0 163 -15.5t134 -42t106 -60.5t83 -72t61 -75.5t43 -71.5t26.5 -60.5t14.5 -42.5l4 -15l-272 -82q-1 7 -2.5 19t-11.5 46.5t-24 66.5t-42.5 70.5t-65 66t-93 46.5t-124.5 19q-148 0 -253 -83t-154.5 -220.5 t-49.5 -316.5q0 -19 5 -111q44 163 194 250.5t356 87.5q107 0 204 -31t177.5 -92.5t128.5 -165.5t48 -237q0 -151 -85.5 -272t-237.5 -188t-341 -67q-171 0 -309.5 61.5t-230 171.5t-140.5 261.5t-49 331.5zM440 514q46 -159 150 -249.5t262 -90.5q190 0 286.5 89t96.5 235 q0 145 -96.5 234t-286.5 89q-159 0 -269.5 -85.5t-142.5 -221.5z" />
<glyph unicode="7" d="M61 1417v174h1516v-235q-8 -1 -23.5 -3t-63 -17t-96.5 -38.5t-119 -73.5t-135.5 -116t-141.5 -171.5t-141.5 -233.5t-130 -310t-112.5 -393h-286q59 270 147.5 494t183.5 366.5t196 251.5t190.5 164.5t161 90t113.5 42.5l42 8h-1301z" />
<glyph unicode="8" d="M82 438q0 67 22.5 124.5t59 96.5t80.5 70.5t88 49.5t80.5 30t59.5 16l22 4q-7 1 -20 4t-49.5 15t-69.5 27.5t-73.5 44t-69.5 62.5t-49 84.5t-20 109.5q0 130 91 232t244.5 157t340.5 55t340.5 -55t244.5 -157t91 -232q0 -63 -21 -117t-55 -91t-74.5 -67t-81.5 -47 t-75 -29t-55 -16l-21 -4q9 0 25 -1.5t62 -10.5t88 -22.5t93.5 -42t88 -65.5t62 -95.5t25.5 -129.5q0 -119 -60 -210.5t-164 -146.5t-234 -82.5t-279 -27.5q-150 0 -280 27.5t-234 82.5t-163.5 146.5t-59.5 210.5zM362 438q0 -70 35.5 -122t99.5 -82.5t144.5 -45t177.5 -14.5 t177 14.5t144 44.5t100 82.5t36 122.5q0 54 -19.5 98.5t-50.5 74t-74 52t-84.5 34.5t-88 20t-79 10t-61.5 2q-95 0 -173.5 -15t-144 -47t-102.5 -90.5t-37 -138.5zM424 1176q0 -47 16 -86t41 -65t60.5 -46t71 -30.5t76 -17.5t70.5 -9t60 -2q395 0 395 256q0 103 -100 172 t-295 69t-295 -69t-100 -172z" />
<glyph unicode="9" d="M123 1094q0 151 85.5 271.5t237 187.5t340.5 67q228 0 394.5 -107t251 -292t84.5 -426q0 -239 -86.5 -424.5t-255 -292.5t-396.5 -107q-86 0 -163 15.5t-134 42t-106 60.5t-83 72t-61 75.5t-43 71.5t-26.5 60.5t-14.5 41.5l-4 16l273 82q1 -7 2.5 -19t11.5 -46.5 t24 -66.5t42.5 -70.5t64.5 -66t92.5 -46.5t124.5 -19q112 0 200 47.5t143.5 132t84.5 196.5t29 245q0 40 -4 110q-42 -149 -180 -243.5t-371 -94.5q-85 0 -164 19t-151 60.5t-125.5 102t-85 149.5t-31.5 196zM403 1094q0 -146 96.5 -235t286.5 -89q160 0 270 87.5t142 219.5 q-47 160 -151.5 250t-260.5 90q-190 0 -286.5 -89t-96.5 -234z" />
<glyph unicode=":" horiz-adv-x="634" d="M184 0v297h267v-297h-267zM184 840v297h267v-297h-267z" />
<glyph unicode=";" horiz-adv-x="634" d="M106 -307q7 4 20 12.5t46.5 38t61.5 62.5t56.5 85.5t39.5 108.5h-146v297h267v-246q0 -71 -17 -139t-41 -115t-48 -84t-41 -55l-17 -18zM184 840v297h267v-297h-267z" />
<glyph unicode="&#x3c;" horiz-adv-x="1331" d="M154 481v107l929 512l54 -94l-858 -471l856 -472l-54 -92z" />
<glyph unicode="=" horiz-adv-x="1331" d="M82 266v103h1167v-103h-1167zM82 758v102h1167v-102h-1167z" />
<glyph unicode="&#x3e;" horiz-adv-x="1331" d="M197 63l856 472l-856 471l51 94l930 -512v-107l-928 -510z" />
<glyph unicode="?" horiz-adv-x="1556" d="M123 1022q1 12 3.5 34t18.5 84t41.5 118.5t78.5 125.5t122.5 118.5t180.5 83.5t245 34q138 0 248 -30t178 -77.5t113.5 -110t63.5 -123t18 -120.5q0 -67 -24.5 -123.5t-64 -96t-90.5 -77t-104 -65.5t-104 -61.5t-90.5 -66.5t-64 -78.5t-24.5 -98.5h-225q0 79 28 139.5 t73 99t99.5 70t109 61.5t99.5 64.5t73 87.5t28 123q0 53 -21 102.5t-61.5 89.5t-107.5 64t-150 24q-76 0 -139 -16.5t-105 -44t-74.5 -63t-50.5 -75.5t-30 -79.5t-15 -75t-4 -63t1 -44.5l1 -16zM623 0v297h266v-297h-266z" />
<glyph unicode="@" horiz-adv-x="2347" d="M123 541q0 236 83.5 437t230.5 341.5t354 219.5t448 79q154 0 300.5 -40t269.5 -116.5t216.5 -180.5t146 -239.5t52.5 -285.5q0 -115 -24 -216.5t-64 -176.5t-92.5 -137.5t-109 -103.5t-114.5 -69t-108 -40.5t-90 -12.5q-109 0 -149.5 58.5t-40.5 211.5q-3 -6 -9.5 -17 t-29.5 -42t-49.5 -59t-70 -62.5t-91 -59.5t-113 -42t-135.5 -17q-92 0 -166.5 25t-123 67.5t-81.5 100t-47 119t-14 129.5q0 132 41 252.5t111.5 210t161.5 156t193.5 100.5t204.5 34q63 0 115.5 -13t87 -34.5t62 -47t42 -50.5t23.5 -46.5t12 -34.5l3 -13l161 211h140 l-211 -942q-19 -89 41 -89q52 0 147 68q119 86 201 226t82 311q0 186 -73 339.5t-197.5 253.5t-287.5 154.5t-345 54.5q-181 0 -353.5 -71.5t-305 -194.5t-213.5 -302.5t-81 -381.5q0 -215 71.5 -392t200 -298t310.5 -187.5t399 -66.5q225 0 433 98t327 265h129 q-155 -224 -388.5 -344.5t-522.5 -120.5q-243 0 -448 75t-348 209t-223.5 324.5t-80.5 415.5zM768 455q0 -130 74 -215.5t211 -85.5q157 0 285 119.5t175 293.5q18 68 18.5 129.5t-17.5 114t-52.5 91t-90.5 60t-128 21.5q-91 0 -176.5 -39t-152 -106.5t-106.5 -167.5 t-40 -215z" />
<glyph unicode="A" horiz-adv-x="1994" d="M41 0l737 1591h439l737 -1591h-285l-227 506h-891l-227 -506h-283zM631 680h733l-330 737h-71z" />
<glyph unicode="B" horiz-adv-x="1738" d="M184 0v1591h676q715 0 715 -389q0 -63 -19 -116t-49 -88t-66.5 -62t-73 -41.5t-66.5 -24t-49 -12.5l-19 -2q8 0 22 -2t53.5 -11.5t75.5 -24.5t80.5 -46t76 -71.5t53.5 -105t22 -142.5q0 -228 -174.5 -340.5t-540.5 -112.5h-717zM451 174h450q78 0 140 7.5t118.5 26.5 t94 49.5t59.5 80t22 115.5t-22 115t-59.5 79.5t-94 49t-118 25.5t-140.5 7h-450v-555zM451 903h409q78 0 140 7t118.5 25t94 46.5t59.5 74t22 105.5t-22 105t-59.5 73.5t-94 46t-118.5 24.5t-140 7h-409v-514z" />
<glyph unicode="C" horiz-adv-x="2015" d="M123 795q0 180 60 331t171 261t279.5 171.5t376.5 61.5q158 0 289.5 -36.5t216 -94.5t149.5 -128.5t98.5 -140.5t54 -128t26.5 -94l5 -37l-274 -82q0 7 -1 19t-7.5 48.5t-16.5 72.5t-31 84t-48.5 90t-71.5 84.5t-97.5 72t-129 48.5t-162.5 19q-188 0 -327 -82.5 t-209.5 -222.5t-70.5 -317q0 -175 75.5 -315.5t219.5 -223t332 -82.5q117 0 213 28t155.5 72.5t104 98.5t65.5 108t33.5 98.5t14.5 72.5l2 28l274 -80q-1 -8 -3 -22t-14 -57t-29 -84.5t-51 -98.5t-76.5 -105.5t-110 -98t-147.5 -84.5t-191.5 -57t-239.5 -22 q-208 0 -379.5 62t-286.5 171.5t-178 261t-63 329.5z" />
<glyph unicode="D" horiz-adv-x="1890" d="M184 0v1591h717q400 0 633 -213t233 -583q0 -368 -233 -581.5t-633 -213.5h-717zM451 174h327q341 0 525 158t184 463t-184 463.5t-525 158.5h-327v-1243z" />
<glyph unicode="E" horiz-adv-x="1525" d="M184 0v1591h1200v-174h-933v-532h876v-174h-876v-537h993v-174h-1260z" />
<glyph unicode="F" horiz-adv-x="1425" d="M184 0v1591h1200v-174h-933v-532h876v-174h-876v-711h-267z" />
<glyph unicode="G" horiz-adv-x="2013" d="M123 795q0 180 60 331t171 261t279.5 171.5t376.5 61.5q119 0 223 -20.5t180.5 -55t141 -79.5t107.5 -94.5t77 -99t52.5 -94.5t31 -79.5t16.5 -55.5l4 -20l-274 -82q-1 10 -4 27t-18 66.5t-36.5 95t-65.5 100.5t-100 94.5t-143.5 66.5t-191.5 27q-188 0 -327 -82.5 t-209.5 -222.5t-70.5 -317q0 -176 69.5 -316t204 -222.5t312.5 -82.5q85 0 158.5 15.5t126 42.5t96 61t71.5 72.5t49.5 76.5t32 72t17.5 61t8 43l2 15h-600v174h867v-807h-267v307q-2 -7 -7 -19t-26.5 -47t-48.5 -66.5t-76.5 -70.5t-108.5 -67t-147 -47t-188 -19 q-186 0 -341 62t-261 171t-164.5 261t-58.5 330z" />
<glyph unicode="H" horiz-adv-x="1904" d="M184 0v1591h267v-706h1003v706h266v-1591h-266v711h-1003v-711h-267z" />
<glyph unicode="I" horiz-adv-x="634" d="M184 0v1591h267v-1591h-267z" />
<glyph unicode="J" horiz-adv-x="1585" d="M123 600l274 80q-8 -31 -8 -68q0 -197 94.5 -317.5t278.5 -120.5t278.5 120.5t94.5 317.5v979h266v-979q0 -320 -169 -480.5t-470 -160.5q-298 0 -467 157.5t-172 471.5z" />
<glyph unicode="K" horiz-adv-x="1765" d="M184 0v1591h267v-753l823 753h328l-717 -635l839 -956h-307l-706 805l-260 -232v-573h-267z" />
<glyph unicode="L" horiz-adv-x="1361" d="M184 0v1591h267v-1417h911v-174h-1178z" />
<glyph unicode="M" horiz-adv-x="2502" d="M184 0v1591h410l657 -1417l658 1417h409v-1591h-266v1315l-627 -1315h-348l-626 1315v-1315h-267z" />
<glyph unicode="N" horiz-adv-x="1906" d="M184 0v1591h328l944 -1315v1315h266v-1591h-327l-944 1315v-1315h-267z" />
<glyph unicode="O" horiz-adv-x="2103" d="M123 795q0 178 66 330.5t185.5 261.5t294 171t382.5 62t382.5 -62t294 -171t186 -261.5t66.5 -330.5t-66.5 -330t-185.5 -261t-294 -171t-383 -62t-382.5 62t-294 171t-185.5 261t-66 330zM403 795q0 -174 81 -315.5t229.5 -223.5t337.5 -82q142 0 264 48t206 131 t131.5 197.5t47.5 244.5q0 131 -47.5 245.5t-131.5 197.5t-206 131t-264 48q-189 0 -337.5 -82t-229.5 -223.5t-81 -316.5z" />
<glyph unicode="P" horiz-adv-x="1615" d="M184 0v1591h676q368 0 541.5 -105t173.5 -325q0 -221 -173.5 -326.5t-541.5 -105.5h-409v-729h-267zM451 903h409q78 0 140 7t118.5 25t94 46.5t59.5 74t22 105.5t-22 105t-59.5 73.5t-94 46t-118.5 24.5t-140 7h-409v-514z" />
<glyph unicode="Q" horiz-adv-x="2103" d="M123 795q0 178 66 330.5t185.5 261.5t294 171t382.5 62t382.5 -62t294 -171t186 -261.5t66.5 -330.5q0 -278 -155.5 -485t-427.5 -290q-2 -1 -6 -2.5t-14 -9t-17.5 -17t-14 -27t-6.5 -38.5q0 -85 53.5 -125.5t161.5 -40.5q69 0 122.5 15t81 36.5t45 43t21.5 36.5l5 15 l59 -219q-3 -5 -9.5 -13.5t-33 -30.5t-60.5 -39t-95 -30.5t-134 -13.5q-95 0 -166.5 26t-111 70t-58.5 93.5t-20 103.5q0 75 29 131q-93 -13 -178 -13q-208 0 -382.5 62t-294 171t-185.5 261t-66 330zM403 795q0 -174 81 -315.5t229.5 -223.5t337.5 -82q142 0 264 48 t206 131t131.5 197.5t47.5 244.5q0 131 -47.5 245.5t-131.5 197.5t-206 131t-264 48q-189 0 -337.5 -82t-229.5 -223.5t-81 -316.5z" />
<glyph unicode="R" horiz-adv-x="1738" d="M184 0v1591h676q368 0 541.5 -105t173.5 -325q0 -176 -132.5 -268t-348.5 -92q60 -7 114 -25t105.5 -49t89.5 -82t55 -117q86 -331 111 -415t47 -113h-277q-22 29 -43 106.5t-92 376.5q-22 93 -71 144.5t-147.5 76.5t-268.5 25h-266v-729h-267zM451 903h409q78 0 140 7 t118.5 25t94 46.5t59.5 74t22 105.5t-22 105t-59.5 73.5t-94 46t-118.5 24.5t-140 7h-409v-514z" />
<glyph unicode="S" horiz-adv-x="1667" d="M82 539l274 79q-1 -6 -1.5 -15.5t2 -40t8.5 -60t22.5 -69.5t41 -74t66.5 -69.5t95.5 -60t132.5 -40t174 -15.5q188 0 300 69t112 171q0 38 -10 68t-32.5 54t-50 42t-72 34.5t-88 28.5t-108.5 27l-387 90q-200 46 -302.5 152.5t-102.5 252.5q0 73 23.5 139.5t74 125 t124.5 101t181.5 67t237.5 24.5q112 0 207.5 -16t163 -43.5t123 -63.5t90 -75.5t60.5 -78.5t38.5 -75t19.5 -63.5t9 -43.5l1 -16l-274 -74q1 14 0 37.5t-22 83t-62.5 105t-137 83t-229.5 37.5q-160 0 -256 -63.5t-96 -165.5q0 -86 69.5 -133.5t211.5 -79.5l405 -90 q467 -105 467 -459q0 -145 -91 -249.5t-243 -155t-348 -50.5q-149 0 -275 27t-212.5 73t-151.5 103t-103 122.5t-57 125.5t-22 117z" />
<glyph unicode="T" horiz-adv-x="1611" d="M0 1417v174h1612v-174h-676v-1417h-260v1417h-676z" />
<glyph unicode="U" horiz-adv-x="1875" d="M184 657v934h267v-934q0 -88 11.5 -157t32 -119.5t53.5 -87t71.5 -59.5t91 -36.5t105.5 -18.5t122 -5t122 5t105.5 18.5t91 36.5t71.5 59.5t53.5 87t32 119.5t11.5 157v934h267v-934q0 -686 -754 -686t-754 686z" />
<glyph unicode="V" horiz-adv-x="1871" d="M41 1591h285l610 -1417l610 1417h285l-707 -1591h-376z" />
<glyph unicode="W" horiz-adv-x="2721" d="M41 1591h285l446 -1417l426 1417h326l426 -1417l446 1417h285l-543 -1591h-377l-401 1315l-399 -1315h-377z" />
<glyph unicode="X" horiz-adv-x="1744" d="M20 0l699 797l-699 794h308l544 -620l545 620h307l-698 -794l698 -797h-307l-545 621l-544 -621h-308z" />
<glyph unicode="Y" horiz-adv-x="1744" d="M20 1591h308l544 -620l545 620h307l-718 -819v-772h-267v772z" />
<glyph unicode="Z" horiz-adv-x="1521" d="M41 0v195l1102 1222h-1102v174h1440v-194l-1102 -1223h1102v-174h-1440z" />
<glyph unicode="[" horiz-adv-x="681" d="M123 -367v2042h518v-102h-416v-1837h416v-103h-518z" />
<glyph unicode="\" horiz-adv-x="501" d="M-80 1460l105 33l557 -1688l-101 -30z" />
<glyph unicode="]" horiz-adv-x="681" d="M41 -264h416v1837h-416v102h518v-2042h-518v103z" />
<glyph unicode="_" horiz-adv-x="1044" d="M41 -123h963v-102h-963v102z" />
<glyph unicode="`" horiz-adv-x="1488" d="M819 1681h307l238 -385h-137z" />
<glyph unicode="a" horiz-adv-x="1441" d="M102 827q2 7 7 19t25.5 47.5t47 67t73.5 70.5t102.5 67.5t137.5 47.5t175 19q124 0 221.5 -32t158 -88.5t90.5 -131.5q29 -70 29 -152v-11l-12 -478v-7q0 -111 90 -111q44 0 80.5 25.5t50.5 50.5l15 26l49 -182q-3 -4 -9.5 -11t-29.5 -25t-51 -31.5t-75.5 -24.5 t-100.5 -11q-108 0 -181 63t-73 202v194q-3 -10 -10 -26.5t-30.5 -64t-50.5 -91t-71.5 -96.5t-92.5 -91t-114 -64t-135 -26q-124 0 -199.5 71t-75.5 179q0 61 21.5 121t77.5 125t141.5 118t224 96.5t314.5 63.5q-2 1 0.5 13.5t-2.5 34t-11 46.5t-24.5 50.5t-43 46.5t-67 34 t-96.5 13t-101 -12.5t-79 -33t-58 -45t-41 -48.5t-25.5 -44.5t-13.5 -33.5l-4 -12zM403 272q0 -58 28.5 -88t80.5 -30q62 0 126 38.5t113.5 95.5t89.5 120t61 116.5t20 79.5v72q-131 -33 -229 -77.5t-151.5 -86t-86.5 -89t-42.5 -82t-9.5 -69.5z" />
<glyph unicode="b" horiz-adv-x="1529" d="M184 0v1569q58 0 119.5 5.5t94.5 11.5l32 5v-665q4 10 12.5 26t42.5 57t76.5 72.5t116.5 57.5t160 26q253 0 411 -167.5t158 -430.5q0 -262 -157.5 -429t-411.5 -167q-73 0 -137 16.5t-107.5 43t-78.5 58t-55.5 63.5t-34.5 58.5t-19 43.5l-5 16l-77 -270h-140zM379 567 q0 -176 101.5 -294.5t279.5 -118.5q179 0 282 113t103 300t-103 301.5t-282 114.5q-119 0 -207 -57.5t-131 -151t-43 -207.5z" />
<glyph unicode="c" horiz-adv-x="1488" d="M123 569q0 127 42.5 236.5t121 189t196 125t260.5 45.5q134 0 238.5 -34.5t167.5 -87t105 -124.5t59 -138.5t20 -137.5l-254 -74q2 25 2 50q-1 37 -5 71q-8 58 -31.5 112t-62.5 94t-100 63.5t-139 23.5q-171 0 -264.5 -113.5t-93.5 -300.5q0 -195 110.5 -305t288.5 -110 q67 0 121 16.5t87 43t57.5 58t36 63.5t18 58.5t7.5 42.5l1 17l254 -74q-2 -9 -5 -23.5t-22 -57t-44 -81t-74 -85.5t-109.5 -81t-154 -57t-203.5 -23q-126 0 -239 40t-201 114t-139.5 189t-51.5 255z" />
<glyph unicode="d" horiz-adv-x="1529" d="M123 567q0 263 158 430.5t411 167.5q86 0 159.5 -24.5t117.5 -59.5t75.5 -70.5t43.5 -60.5l12 -24v643q57 0 118.5 5.5t94.5 11.5l33 5v-1591h-140l-78 270q-2 -6 -5.5 -17t-18.5 -42t-34.5 -59t-55 -62.5t-78.5 -59.5t-107 -42t-137 -17q-254 0 -411.5 167t-157.5 429z M385 567q0 -187 103 -300t282 -113q178 0 279.5 118.5t101.5 294.5q0 114 -43 207.5t-131 151t-207 57.5q-179 0 -282 -114.5t-103 -301.5z" />
<glyph unicode="e" horiz-adv-x="1488" d="M123 569q0 128 42.5 237t122 188.5t199.5 125t267 45.5q103 0 188 -21.5t143 -57.5t103.5 -83t71 -99t43.5 -104t24 -99t8.5 -83t0.5 -58l-1 -21l-950 20q3 -190 113.5 -297.5t285.5 -107.5q67 0 121 16.5t87.5 43t58 58t36 63.5t18 58.5t7.5 42.5v17l254 -74 q-2 -9 -5.5 -23.5t-21.5 -57t-43 -81t-74 -85.5t-109.5 -81t-154.5 -57t-204 -23q-126 0 -239 40t-201 114t-139.5 189t-51.5 255zM395 684l680 10q0 6 -1.5 16.5t-9 40.5t-20 57t-38.5 60.5t-59.5 57.5t-87.5 40.5t-120 16.5q-139 0 -228 -80t-116 -219z" />
<glyph unicode="f" horiz-adv-x="1015" d="M20 983v154h328q-6 2 -15.5 5.5t-33.5 18.5t-43 34t-34 53t-15 75q0 54 25.5 104t77.5 94.5t144.5 71.5t213.5 27q99 0 185 -18.5t144.5 -48.5t106.5 -66t76.5 -72t48 -66t26.5 -49l7 -18l-254 -74q-2 10 -7.5 27t-30.5 60t-58.5 76t-96 60t-139.5 27q-106 0 -168 -47 t-62 -129q0 -40 15.5 -76t30.5 -52l16 -17h418v-154h-406v-983h-246v983h-254z" />
<glyph unicode="g" horiz-adv-x="1488" d="M102 -219q0 107 102 170t255 63q-13 0 -34 2t-75.5 14t-96.5 31t-76 60t-34 96q0 44 24.5 79t58.5 55t81 34.5t81.5 20t70.5 8.5q-149 47 -224 142.5t-75 211.5q0 79 34.5 149t103 126t184 89t263.5 33q257 0 410 -96q-37 67 -41 121v11q0 47 27 80q30 37 101 51 q36 8 81 8q44 0 96 -7l49 -182q-50 9 -92 9q-45 0 -81 -10q-69 -20 -79 -60q-2 -10 -2 -21q0 -31 21 -65q96 -99 96 -236q0 -79 -34.5 -148.5t-103 -125.5t-182 -88.5t-259.5 -32.5q-106 0 -197 16q-60 -8 -104.5 -36.5t-44.5 -86.5q0 -112 176 -112h389q103 0 183 -17.5 t130.5 -46t83.5 -68.5t46 -82.5t13 -91.5q0 -325 -602 -325h-266q-109 0 -192.5 17t-132.5 43t-80 61.5t-41.5 68.5t-10.5 68zM367 -178q0 -97 89 -135.5t318 -38.5q206 0 297.5 39.5t91.5 134.5q0 68 -48.5 105t-162.5 46l-348 27q-5 0 -13.5 -0.5t-33 -4t-47 -9.5 t-50 -19.5t-47 -31.5t-33 -47.5t-13.5 -65.5zM422 768q0 -104 78 -173t245 -69q166 0 244 69t78 173q0 107 -77.5 175.5t-244.5 68.5t-245 -68.5t-78 -175.5z" />
<glyph unicode="h" horiz-adv-x="1531" d="M184 0v1569q64 0 125.5 5.5t90.5 11.5l30 5v-741q1 7 3.5 18t15.5 44t31.5 62.5t53.5 66t78.5 62.5t111 44t146.5 18q478 0 478 -460v-705h-246v700q0 141 -83 212t-239 71q-64 0 -116.5 -13.5t-88 -35t-63 -50.5t-42.5 -57.5t-24.5 -59t-12.5 -52t-3 -39.5v-676h-246z " />
<glyph unicode="i" horiz-adv-x="614" d="M184 0v1137h246v-1137h-246zM184 1395v196h246v-196h-246z" />
<glyph unicode="j" horiz-adv-x="636" d="M-184 -391l49 182q2 -4 5.5 -9.5t16 -21t27 -27t39 -21t51.5 -9.5q203 0 203 311v1123h246v-1106q0 -240 -103.5 -378t-300.5 -138q-46 0 -87.5 9.5t-67 23.5t-44 28t-26.5 24zM207 1395v196h246v-196h-246z" />
<glyph unicode="k" horiz-adv-x="1339" d="M184 0v1569q64 0 125.5 5.5t90.5 11.5l30 5v-925l500 471h299l-508 -480l618 -657h-317l-475 514l-117 -111v-403h-246z" />
<glyph unicode="l" horiz-adv-x="614" d="M184 0v1569q58 0 119.5 5.5t94.5 11.5l32 5v-1591h-246z" />
<glyph unicode="m" horiz-adv-x="2326" d="M184 0v1137h119l105 -338q1 8 3.5 21t16 51t32 72.5t55 77t82.5 72.5t117.5 51t155.5 21q187 0 283.5 -80t122.5 -235q11 37 28 72t53 81.5t82.5 80t121.5 57.5t165 24q117 0 198.5 -31t128.5 -92t68 -143t21 -194v-705h-246v700q0 283 -280 283q-69 0 -124.5 -17.5 t-90 -47t-58.5 -62.5t-36 -69.5t-16.5 -63t-4.5 -47.5v-676h-246v715q-9 268 -280 268q-69 0 -124.5 -17.5t-90 -47t-58.5 -62.5t-36 -69.5t-16.5 -63t-4.5 -47.5v-676h-246z" />
<glyph unicode="n" horiz-adv-x="1531" d="M184 0v1137h119l105 -338q1 8 2.5 21t13 51t29 72.5t53.5 77t82.5 72.5t119.5 51t162 21q478 0 478 -460v-705h-246v700q0 141 -83 212t-239 71q-64 0 -116.5 -13.5t-88 -35t-63 -50.5t-42.5 -57.5t-24.5 -59t-12.5 -52t-3 -39.5v-676h-246z" />
<glyph unicode="o" horiz-adv-x="1536" d="M123 569q0 125 44.5 234t125.5 189.5t203.5 126.5t271.5 46t271.5 -46t203.5 -126.5t125.5 -189.5t44.5 -234q0 -126 -44 -235t-125.5 -190t-204 -127t-271.5 -46t-271.5 46t-204 127t-125.5 190t-44 235zM385 569q0 -187 103 -301t280 -114q174 0 278.5 114.5 t104.5 300.5t-104.5 300t-278.5 114q-177 0 -280 -113.5t-103 -300.5z" />
<glyph unicode="p" horiz-adv-x="1529" d="M184 -457v1594h140l77 -271q2 6 5.5 17t18.5 42t34.5 59t55.5 62.5t79 59.5t107 42t137 17q254 0 411.5 -167t157.5 -429q0 -263 -158 -430.5t-411 -167.5q-64 0 -121 13.5t-97 34.5t-73.5 47t-54.5 52t-35.5 47t-20.5 35l-6 13v-670h-246zM379 569q0 -114 43 -207 t131 -150.5t207 -57.5q179 0 282 114t103 301t-103 300.5t-282 113.5q-119 0 -207 -57t-131 -150t-43 -207z" />
<glyph unicode="q" horiz-adv-x="1529" d="M123 569q0 262 157.5 429t411.5 167q73 0 137 -16.5t107 -43t78.5 -58t55.5 -63.5t34 -58.5t19 -43.5l5 -16l78 271h140v-1594h-246v668q-4 -10 -12.5 -26t-42.5 -57.5t-76.5 -73t-116.5 -57.5t-160 -26q-253 0 -411 167.5t-158 430.5zM385 569q0 -187 103 -301t282 -114 q119 0 207 57.5t131 150.5t43 207t-43 207t-131 150t-207 57q-179 0 -282 -113.5t-103 -300.5z" />
<glyph unicode="r" horiz-adv-x="1048" d="M184 0v1137h119l105 -338q1 8 3 21t12 51t24.5 72.5t42.5 77t63 72.5t89 51t118 21q68 0 117.5 -22t77.5 -61.5t40.5 -87.5t12.5 -107q0 -64 -10 -124.5t-20 -88.5l-11 -29l-254 -74q43 132 43 263q0 149 -101 149q-55 0 -101 -38.5t-71.5 -92t-39 -101.5t-13.5 -77v-674 h-246z" />
<glyph unicode="s" horiz-adv-x="1325" d="M82 379l254 74q-1 -6 -1.5 -17t4.5 -42t16.5 -59t40.5 -62.5t70.5 -59.5t112 -42t160.5 -17q112 0 177 43t65 110q0 60 -54.5 101t-183.5 65l-249 45q-180 32 -264.5 114t-84.5 193q0 105 65 183t173.5 117.5t243.5 39.5q106 0 194 -19t143.5 -49t98 -66.5t64 -73 t34.5 -66.5t16 -49l3 -19l-254 -73q0 3 0.5 8t-1 21t-5 31.5t-13 36.5t-23 39t-37 36.5t-53.5 31.5t-74 21t-97 8q-119 0 -177.5 -40t-58.5 -105q0 -106 229 -146l279 -49q348 -62 348 -315q0 -107 -68 -189t-182.5 -125t-255.5 -43q-96 0 -179.5 14t-144 37.5t-111 54 t-84 64.5t-59.5 68t-40 64.5t-23 54t-12 37.5z" />
<glyph unicode="t" horiz-adv-x="1089" d="M41 983v154h264v258l236 164v-422h467v-154h-467v-571q0 -132 49.5 -195t148.5 -63q56 0 103 17t75 41t47.5 47.5t27.5 40.5l7 17l50 -182q-4 -7 -13 -18t-41.5 -39t-70.5 -50t-101.5 -39.5t-134.5 -17.5q-188 0 -290.5 102.5t-102.5 311.5v598h-254z" />
<glyph unicode="u" horiz-adv-x="1531" d="M184 432v705h246v-701q0 -141 83 -211.5t239 -70.5q64 0 116.5 13.5t88 35t63 50.5t42.5 57.5t24.5 59t12.5 52t3 39.5v676h246v-1137h-119l-105 338q-1 -8 -2.5 -21t-13 -51t-29 -73t-53.5 -77t-82.5 -72.5t-119.5 -51.5t-162 -21q-478 0 -478 461z" />
<glyph unicode="v" horiz-adv-x="1368" d="M20 1137h283l381 -918l385 918h279l-531 -1137h-268z" />
<glyph unicode="w" horiz-adv-x="2070" d="M20 1137h283l305 -918l279 918h297l280 -918l303 918h283l-438 -1137h-271l-305 952l-307 -952h-268z" />
<glyph unicode="x" horiz-adv-x="1355" d="M20 0l517 565l-517 572h306l352 -420l352 420h305l-518 -572l518 -565h-313l-344 418l-342 -418h-316z" />
<glyph unicode="y" horiz-adv-x="1302" d="M20 1137h283l359 -805l342 805h278l-551 -1137q-124 -254 -228.5 -369.5t-238.5 -115.5q-43 0 -81.5 9.5t-63.5 23.5t-44 28t-27 24l-9 9l29 182q2 -5 6 -11.5t17 -21t28.5 -26t40.5 -20.5t53 -9q74 0 153.5 81.5t137.5 213.5l33 74z" />
<glyph unicode="z" horiz-adv-x="1249" d="M82 0v174l799 809h-799v154h1085v-174l-788 -809h788v-154h-1085z" />
<glyph unicode="{" horiz-adv-x="626" d="M61 598v184q35 1 66.5 9t62.5 26.5t45.5 56t6.5 89.5l-43 278q-12 76 1.5 137.5t47 103t85 70t111.5 42.5t131 18l11 -84q-72 -7 -122.5 -24.5t-89 -51.5t-53 -91t-4.5 -138l33 -271q8 -63 -6 -113.5t-44 -80.5t-63.5 -46.5t-70.5 -21.5q37 -5 70.5 -21.5t63.5 -46.5 t44 -80.5t6 -113.5l-33 -270q-10 -81 4.5 -138t53 -91t89 -51.5t122.5 -24.5l-11 -82q-72 4 -131.5 17.5t-111.5 42t-85 69t-46.5 102t-1.5 137.5l43 279q8 52 -6.5 89.5t-45.5 55.5t-62.5 26t-66.5 9z" />
<glyph unicode="|" horiz-adv-x="348" d="M123 -225v1718h102v-1718h-102z" />
<glyph unicode="}" horiz-adv-x="626" d="M41 -147q72 7 122.5 24.5t88.5 51.5t52.5 91t4.5 138l-33 270q-8 63 6 113.5t44.5 80.5t64 46.5t70.5 21.5q-37 5 -70.5 21.5t-64 46.5t-44.5 80.5t-6 113.5l33 271q10 81 -4.5 138t-52.5 91t-88.5 51.5t-122.5 24.5l10 84q71 -4 131 -18t112 -42.5t85.5 -70t47 -103 t1.5 -137.5l-43 -278q-8 -52 6.5 -89.5t45 -56t62 -26.5t66.5 -9v-184q-35 -1 -66.5 -9t-62 -26t-45 -55.5t-6.5 -89.5l43 -279q12 -76 -2 -137.5t-47 -102t-85 -69t-111.5 -42t-131.5 -17.5z" />
<glyph unicode="&#xa1;" horiz-adv-x="593" d="M164 154v297h266v-297h-266zM164 -1141l20 1100h226l20 -1100h-266z" />
<glyph unicode="&#xa2;" d="M197 569q0 251 155.5 416.5t421.5 177.5v428h88v-426q123 -6 219.5 -42.5t155 -89t97 -122.5t54.5 -134.5t19 -133.5l-254 -74q6 74 -6.5 141.5t-45 126.5t-94 97.5t-145.5 46.5v-827q66 0 119 17t86 43.5t57.5 58t35.5 63.5t17.5 58t7.5 42l1 17l254 -74q-1 -8 -5 -22 t-21 -55t-41 -78.5t-70.5 -84t-103.5 -80.5t-145 -59t-192 -29v-428h-88v430q-117 8 -220.5 51t-183.5 117t-126.5 184.5t-46.5 243.5zM459 569q0 -170 85.5 -277t229.5 -132v821q-151 -15 -233 -126.5t-82 -285.5z" />
<glyph unicode="&#xa3;" d="M0 225q0 114 69.5 183t196.5 69q95 0 160.5 -28.5t132.5 -81.5q6 27 6 57q0 43 -14 80.5t-45 73t-58.5 59.5t-74.5 61h-373v103h250q-152 141 -152 317q0 76 23.5 146.5t77 135.5t131 113.5t194.5 77.5t260 29q109 0 202 -18.5t157.5 -49.5t116 -71t83 -84.5t54 -89.5 t32.5 -85t15.5 -71t5.5 -49v-19l-274 -82q1 9 1.5 24t-3.5 58t-15.5 82.5t-40.5 87.5t-71.5 82.5t-115 58t-165.5 23.5q-192 0 -289.5 -70.5t-97.5 -199.5q0 -31 5.5 -60t13 -51t23.5 -47.5t27 -41t34.5 -40t35 -35t40 -36.5t38.5 -35h469v-103h-373q84 -113 84 -260 q0 -113 -43 -207q8 -6 23.5 -15.5t72 -25.5t121.5 -16q79 0 141.5 28t100 72.5t64 98.5t37 108t16 98.5t5.5 72.5l-1 28l274 -80q-1 -13 -3 -35.5t-16 -88t-36.5 -125t-68.5 -132t-106.5 -124.5t-157.5 -88t-214 -36q-59 0 -116.5 13t-98.5 31.5t-74 37.5t-49 32l-16 13 q-4 -5 -11 -13.5t-35 -30.5t-61 -39t-90 -30.5t-121 -13.5q-150 0 -231.5 65.5t-81.5 188.5zM158 231q0 -54 39 -89.5t104 -35.5q36 0 69.5 11.5t55.5 28t38.5 32.5t23.5 28l8 11q-12 11 -39 37t-42.5 38.5t-39 29.5t-46.5 24.5t-48 7.5q-61 0 -92 -34.5t-31 -88.5z" />
<glyph unicode="&#xa5;" d="M20 1591h328l471 -620l471 620h328l-666 -819v-92h451v-102h-451v-226h451v-102h-451v-250h-266v250h-450v102h450v226h-450v102h450v92z" />
<glyph unicode="&#xa6;" horiz-adv-x="348" d="M123 -225v686h102v-686h-102zM123 807v686h102v-686h-102z" />
<glyph unicode="&#xa7;" horiz-adv-x="1325" d="M82 -78l254 74q-1 -6 -1.5 -17t4.5 -42t16.5 -59t40.5 -62.5t70.5 -59.5t112 -42t160.5 -17q113 0 177.5 46.5t64.5 119.5q0 64 -43.5 120t-153.5 109l-290 139q-173 82 -261 163t-88 179q0 44 21 85t54.5 72.5t79 58.5t91.5 45t96 32q-187 78 -296 183t-109 215 q0 107 68 189t182.5 124.5t255.5 42.5q96 0 179.5 -14t144 -37.5t111 -54t84 -64.5t59.5 -68t40 -64.5t23 -54t11 -37.5l3 -14l-254 -73q1 6 1.5 17t-4.5 42t-16.5 59t-40.5 62.5t-70.5 59.5t-112 42t-160.5 17q-111 0 -176.5 -47.5t-65.5 -116.5q0 -133 201 -232l299 -145 q88 -43 151 -83.5t98.5 -73t55.5 -67.5t25.5 -61.5t5.5 -60.5q0 -51 -31 -98t-83.5 -82t-110 -61t-121.5 -44q194 -58 301.5 -167.5t107.5 -227.5q0 -107 -68 -189t-182.5 -124.5t-255.5 -42.5q-96 0 -179.5 14t-144 37.5t-111 54t-84 64t-59.5 67.5t-40 64.5t-23 54 t-12 37.5zM406 602q0 -27 16 -56t49 -57.5t93 -46.5t138 -18q95 0 158.5 30.5t63.5 80.5q-5 72 -88.5 124t-212.5 52q-96 0 -156.5 -29t-60.5 -80z" />
<glyph unicode="&#xa8;" horiz-adv-x="733" d="M39 1395v196h246v-196h-246zM449 1395v196h245v-196h-245z" />
<glyph unicode="&#xa9;" horiz-adv-x="2179" d="M123 637q0 200 75.5 379.5t204 308t308 204t379.5 75.5t379.5 -75.5t308 -204t203.5 -308t75 -379.5t-75 -379.5t-203.5 -308t-308 -204t-379.5 -75.5t-379.5 75.5t-308 204t-204 308t-75.5 379.5zM238 635q0 -174 67 -332t181 -272t272 -181t332 -67t332 67t272 181 t181 272t67 332t-67 332t-181 272t-272 181t-332 67t-332 -67t-272 -181t-181 -272t-67 -332zM434 637q0 131 43 241.5t123.5 192t203 127t273.5 45.5q123 0 224.5 -26t165.5 -67.5t112.5 -92t72 -100.5t38 -91.5t17.5 -67.5l3 -26l-250 -74q0 7 -0.5 19.5t-7.5 48 t-19.5 67.5t-41 71.5t-67.5 68t-103 48t-144 19.5q-181 0 -286 -114t-105 -289q0 -174 111 -290t293 -116q60 0 111 12.5t87.5 33.5t66 48t47.5 57.5t32 60.5t20.5 57t10.5 48t5 34v12l250 -70q-1 -10 -4 -28t-19.5 -69.5t-41.5 -98t-74 -104t-112 -98.5t-162 -69t-217 -28 q-300 0 -478 171t-178 437z" />
<glyph unicode="&#xab;" horiz-adv-x="1128" d="M61 567l371 449h184l-309 -449l309 -448h-184zM512 567l371 449h184l-309 -449l309 -448h-184z" />
<glyph unicode="&#xad;" horiz-adv-x="1028" d="M82 532v154h864v-154h-864z" />
<glyph unicode="&#xae;" horiz-adv-x="2179" d="M123 637q0 200 75.5 379.5t204 308t308 204t379.5 75.5t379.5 -75.5t308 -204t203.5 -308t75 -379.5t-75 -379.5t-203.5 -308t-308 -204t-379.5 -75.5t-379.5 75.5t-308 204t-204 308t-75.5 379.5zM238 635q0 -174 67 -332t181 -272t272 -181t332 -67t332 67t272 181 t181 272t67 332t-67 332t-181 272t-272 181t-332 67t-332 -67t-272 -181t-181 -272t-67 -332zM598 53v1166h498q267 0 394.5 -82.5t127.5 -249.5q0 -108 -68 -182t-188 -80q68 -7 114 -54.5t62 -115.5q54 -212 77.5 -282t59.5 -120h-266q-22 29 -37 80t-53 215l-16 64 q-21 77 -90 112t-220 35h-153v-506h-242zM840 737h256q128 0 199 33.5t71 116.5t-71 116t-199 33h-256v-299z" />
<glyph unicode="&#xb0;" horiz-adv-x="712" d="M82 1223q0 112 80.5 191t191.5 79q113 0 195 -79t82 -191q0 -110 -82 -188.5t-195 -78.5q-111 0 -191.5 78.5t-80.5 188.5zM197 1223q0 -71 44.5 -116.5t112.5 -45.5q70 0 116 45.5t46 116.5q0 73 -46 119.5t-116 46.5q-68 0 -112.5 -46.5t-44.5 -119.5z" />
<glyph unicode="&#xb1;" horiz-adv-x="1331" d="M41 0v102h1249v-102h-1249zM41 750v102h573v573h103v-573h573v-102h-573v-574h-103v574h-573z" />
<glyph unicode="&#xb4;" horiz-adv-x="1488" d="M1094 1296l237 385h307l-407 -385h-137z" />
<glyph unicode="&#xb5;" horiz-adv-x="1531" d="M184 -457v1594h246v-619q0 -173 84 -268.5t238 -95.5q64 0 116.5 13.5t88 35t63 50.5t42.5 57.5t24.5 59t12.5 52t3 39.5v676h246v-1137h-119l-105 338q-1 -8 -2.5 -21t-12.5 -51t-27 -73t-49 -77t-75 -72.5t-109 -51.5t-147 -21q-68 0 -154 31t-118 68v-527h-246z" />
<glyph unicode="&#xb6;" horiz-adv-x="1462" d="M41 1137q0 98 29.5 175.5t80.5 129t124 85.5t156.5 49t180.5 15h666v-2048h-242v1874h-178v-1874h-246v1149q-165 0 -292 48t-203 150t-76 247z" />
<glyph unicode="&#xb7;" horiz-adv-x="1116" d="M147 573q0 171 120.5 291.5t289.5 120.5q171 0 291.5 -120.5t120.5 -291.5q0 -167 -121 -287t-291 -120q-169 0 -289.5 120t-120.5 287z" />
<glyph unicode="&#xb8;" horiz-adv-x="1705" d="M479 -389l37 139q3 -5 8 -13t24 -28t40 -35.5t55 -28t70 -12.5q63 0 100 28t37 77q0 42 -23.5 66t-62.5 24q-15 0 -28.5 -4.5t-22.5 -11t-16 -13.5t-10 -11l-3 -5l-88 6l88 256h98l-61 -178q40 35 110 35q72 0 117 -44t45 -126q0 -100 -77 -158.5t-193 -58.5 q-45 0 -87 10t-69.5 24t-48 28t-30.5 24z" />
<glyph unicode="&#xbb;" horiz-adv-x="1128" d="M61 119l310 448l-310 449h185l370 -449l-370 -448h-185zM512 119l309 448l-309 449h184l371 -449l-371 -448h-184z" />
<glyph unicode="&#xbc;" horiz-adv-x="1593" d="M0 799v86h307l-2 622q0 -61 -12 -99.5t-45.5 -66.5t-93 -39.5t-154.5 -11.5v101q159 0 233 44.5t74 157.5h133v-708h215v-86h-655zM350 41l842 1565l98 -50l-846 -1562zM825 193v126l432 476h177v-516h159v-86h-159v-193h-134v193h-475zM928 279h372v419z" />
<glyph unicode="&#xbd;" horiz-adv-x="1593" d="M0 799v86h307l-2 622q0 -61 -12 -99.5t-45.5 -66.5t-93 -39.5t-154.5 -11.5v101q159 0 233 44.5t74 157.5h133v-708h215v-86h-655zM350 41l842 1565l98 -50l-846 -1562zM938 0v76q10 4 28 12.5t70 35t99.5 55t105 72.5t99 87.5t70 98.5t28.5 108q0 71 -46.5 117.5 t-136.5 46.5q-88 0 -132 -46t-44 -116q0 -30 10 -58t24.5 -46.5t29.5 -33t25 -21.5l10 -7l-138 -41q-4 3 -10.5 9t-23.5 26.5t-30 43t-23.5 58.5t-10.5 74q0 102 83 180t232 78q154 0 237 -72.5t83 -187.5q0 -59 -25.5 -115.5t-59.5 -97t-89.5 -84t-93.5 -67.5t-94.5 -57 t-71.5 -42h450v-86h-655z" />
<glyph unicode="&#xbe;" horiz-adv-x="1593" d="M0 1071l137 41q2 -1 0 -12t2.5 -30.5t10 -42t23 -46t40.5 -42t62.5 -30.5t89.5 -12q94 0 147 36.5t53 104.5q0 138 -221 138h-51v86h51q92 0 146.5 35t54.5 96q0 56 -47 91.5t-123 35.5q-59 0 -101 -19.5t-60 -47t-27 -55.5t-9 -48v-19l-137 41q1 5 2.5 14t11 35t23 49 t40 52t60.5 49.5t87 34.5t116 14q136 0 220.5 -60t84.5 -149q0 -49 -22 -84.5t-53 -52t-62.5 -26t-53.5 -10.5l-22 -1q5 0 13.5 -0.5t32.5 -4t46.5 -10t49.5 -21.5t46 -35.5t32.5 -54t13.5 -75.5q0 -118 -96.5 -178.5t-241.5 -60.5q-73 0 -133 15t-97 39.5t-65 53.5 t-41.5 58t-21.5 53.5t-9 39.5zM350 41l842 1565l98 -50l-846 -1562zM825 193v126l432 476h177v-516h159v-86h-159v-193h-134v193h-475zM928 279h372v419z" />
<glyph unicode="&#xbf;" horiz-adv-x="1556" d="M123 -571l274 82q-1 -10 -2 -27t2 -67t13.5 -95t39.5 -100t72.5 -95t118.5 -67t172 -27q83 0 150 24t107.5 64.5t61.5 90t21 102.5q0 70 -28 123t-73 87.5t-99.5 64.5t-109 61.5t-99.5 70t-73 99t-28 139.5h225q0 -53 24.5 -98.5t64 -78.5t90.5 -66.5t104 -62t104 -65.5 t90.5 -77t64 -96.5t24.5 -123.5q0 -50 -13 -100t-41 -102.5t-77.5 -98t-115.5 -81.5t-162 -57t-212 -21q-106 0 -197 20.5t-156 55t-118.5 79.5t-87.5 94.5t-60 99t-39 94.5t-21 79.5t-10 54.5zM623 154v297h266v-297h-266z" />
<glyph unicode="&#xc0;" horiz-adv-x="1994" d="M41 0l737 1591h439l737 -1591h-285l-227 506h-891l-227 -506h-283zM606 2136h307l238 -385h-137zM631 680h733l-330 737h-71z" />
<glyph unicode="&#xc1;" horiz-adv-x="1994" d="M41 0l737 1591h439l737 -1591h-285l-227 506h-891l-227 -506h-283zM631 680h733l-330 737h-71zM840 1751l237 385h307l-407 -385h-137z" />
<glyph unicode="&#xc2;" horiz-adv-x="1994" d="M41 0l737 1591h439l737 -1591h-285l-227 506h-891l-227 -506h-283zM483 1751l361 385h184l361 -385h-138l-315 217l-315 -217h-138zM631 680h733l-330 737h-71z" />
<glyph unicode="&#xc3;" horiz-adv-x="1994" d="M41 0l737 1591h439l737 -1591h-285l-227 506h-891l-227 -506h-283zM625 1878q2 8 6 21.5t21.5 47.5t39.5 59.5t62 47t88 21.5q52 0 98.5 -18t76 -39.5t68.5 -39.5t78 -18q29 0 52.5 12t37 29t23 33.5t12.5 28.5l4 12l82 -74q-2 -8 -6 -21.5t-21.5 -47.5t-39.5 -59.5 t-62 -47t-88 -21.5q-53 0 -99.5 18t-75 39.5t-68 39.5t-80.5 18q-27 0 -50.5 -12t-37 -28.5t-23 -33.5t-13.5 -29l-3 -12zM631 680h733l-330 737h-71z" />
<glyph unicode="&#xc4;" horiz-adv-x="1994" d="M41 0l737 1591h439l737 -1591h-285l-227 506h-891l-227 -506h-283zM631 680h733l-330 737h-71zM670 1849v197h245v-197h-245zM1079 1849v197h246v-197h-246z" />
<glyph unicode="&#xc5;" horiz-adv-x="1994" d="M41 0l737 1591h439l737 -1591h-285l-227 506h-891l-227 -506h-283zM631 680h733l-330 737h-71zM774 1948q0 93 65.5 160t157.5 67q97 0 162.5 -64.5t65.5 -162.5q0 -91 -68 -157.5t-160 -66.5q-91 0 -157 66.5t-66 157.5zM899 1950q0 -43 28.5 -72t71.5 -29 q42 0 71.5 30.5t29.5 70.5q0 39 -29.5 69.5t-71.5 30.5q-43 0 -71.5 -28.5t-28.5 -71.5z" />
<glyph unicode="&#xc6;" horiz-adv-x="2394" d="M20 0l738 1591h1495v-174h-791v-532h733v-174h-733v-537h850v-174h-1116v711h-573l-320 -711h-283zM702 885h494v532h-254z" />
<glyph unicode="&#xc7;" horiz-adv-x="2015" d="M123 795q0 180 60 331t171 261t279.5 171.5t376.5 61.5q158 0 289.5 -36.5t216 -94.5t149.5 -128.5t98.5 -140.5t54 -128t26.5 -94l5 -37l-274 -82q0 7 -1 19t-7.5 48.5t-16.5 72.5t-31 84t-48.5 90t-71.5 84.5t-97.5 72t-129 48.5t-162.5 19q-188 0 -327 -82.5 t-209.5 -222.5t-70.5 -317q0 -175 75.5 -315.5t219.5 -223t332 -82.5q117 0 213 28t155.5 72.5t104 98.5t65.5 108t33.5 98.5t14.5 72.5l2 28l274 -80q-1 -8 -3 -22t-14 -57t-29 -84.5t-51 -98.5t-76.5 -105.5t-110 -98t-147.5 -84.5t-191.5 -57t-239.5 -22h-2l-37 -104 q41 35 111 35q72 0 117 -44t45 -126q0 -100 -77.5 -158.5t-193.5 -58.5q-45 0 -87 10t-69 24t-47.5 28t-29.5 24l-10 10l36 139q3 -5 8 -13t24 -28t40 -35.5t55 -28t70 -12.5q63 0 100 28t37 77q0 42 -23.5 66t-62.5 24q-15 0 -28.5 -4.5t-22.5 -11t-16 -13.5t-10 -11l-3 -5 l-88 6l64 186q-249 19 -432.5 129t-279 288.5t-95.5 402.5z" />
<glyph unicode="&#xc8;" horiz-adv-x="1525" d="M184 0v1591h1200v-174h-933v-532h876v-174h-876v-537h993v-174h-1260zM422 2136h307l238 -385h-138z" />
<glyph unicode="&#xc9;" horiz-adv-x="1525" d="M184 0v1591h1200v-174h-933v-532h876v-174h-876v-537h993v-174h-1260zM655 1751l238 385h307l-407 -385h-138z" />
<glyph unicode="&#xca;" horiz-adv-x="1525" d="M184 0v1591h1200v-174h-933v-532h876v-174h-876v-537h993v-174h-1260zM360 1751l361 385h184l361 -385h-138l-315 217l-315 -217h-138z" />
<glyph unicode="&#xcb;" horiz-adv-x="1525" d="M184 0v1591h1200v-174h-933v-532h876v-174h-876v-537h993v-174h-1260zM547 1849v197h246v-197h-246zM956 1849v197h246v-197h-246z" />
<glyph unicode="&#xcc;" horiz-adv-x="634" d="M-115 2136h308l237 -385h-137zM184 0v1591h267v-1591h-267z" />
<glyph unicode="&#xcd;" horiz-adv-x="634" d="M119 1751l237 385h308l-408 -385h-137zM184 0v1591h267v-1591h-267z" />
<glyph unicode="&#xce;" horiz-adv-x="634" d="M-176 1751l360 385h185l360 -385h-137l-316 217l-315 -217h-137zM184 0v1591h267v-1591h-267z" />
<glyph unicode="&#xcf;" horiz-adv-x="634" d="M10 1849v197h246v-197h-246zM184 0v1591h267v-1591h-267zM420 1849v197h246v-197h-246z" />
<glyph unicode="&#xd1;" horiz-adv-x="1906" d="M184 0v1591h328l944 -1315v1315h266v-1591h-327l-944 1315v-1315h-267zM580 1874q2 8 6 21.5t21.5 47.5t39.5 59.5t62 47t88 21.5q52 0 98.5 -18t76 -39.5t68.5 -39.5t78 -18q29 0 52.5 12t37 29t23 33.5t13.5 28.5l3 12l82 -74q-2 -8 -6 -21.5t-21.5 -47.5t-39.5 -59.5 t-62 -47t-88 -21.5q-53 0 -100 18t-75.5 39.5t-68 39.5t-80.5 18q-27 0 -50.5 -12t-36.5 -28.5t-22.5 -33.5t-12.5 -29l-4 -12z" />
<glyph unicode="&#xd2;" horiz-adv-x="2103" d="M123 795q0 178 66 330.5t185.5 261.5t294 171t382.5 62t382.5 -62t294 -171t186 -261.5t66.5 -330.5t-66.5 -330t-185.5 -261t-294 -171t-383 -62t-382.5 62t-294 171t-185.5 261t-66 330zM403 795q0 -174 81 -315.5t229.5 -223.5t337.5 -82q142 0 264 48t206 131 t131.5 197.5t47.5 244.5q0 131 -47.5 245.5t-131.5 197.5t-206 131t-264 48q-189 0 -337.5 -82t-229.5 -223.5t-81 -316.5zM600 2136h307l238 -385h-137z" />
<glyph unicode="&#xd3;" horiz-adv-x="2103" d="M123 795q0 178 66 330.5t185.5 261.5t294 171t382.5 62t382.5 -62t294 -171t186 -261.5t66.5 -330.5t-66.5 -330t-185.5 -261t-294 -171t-383 -62t-382.5 62t-294 171t-185.5 261t-66 330zM403 795q0 -174 81 -315.5t229.5 -223.5t337.5 -82q142 0 264 48t206 131 t131.5 197.5t47.5 244.5q0 131 -47.5 245.5t-131.5 197.5t-206 131t-264 48q-189 0 -337.5 -82t-229.5 -223.5t-81 -316.5zM834 1751l237 385h307l-407 -385h-137z" />
<glyph unicode="&#xd4;" horiz-adv-x="2103" d="M123 795q0 178 66 330.5t185.5 261.5t294 171t382.5 62t382.5 -62t294 -171t186 -261.5t66.5 -330.5t-66.5 -330t-185.5 -261t-294 -171t-383 -62t-382.5 62t-294 171t-185.5 261t-66 330zM403 795q0 -174 81 -315.5t229.5 -223.5t337.5 -82q142 0 264 48t206 131 t131.5 197.5t47.5 244.5q0 131 -47.5 245.5t-131.5 197.5t-206 131t-264 48q-189 0 -337.5 -82t-229.5 -223.5t-81 -316.5zM596 1751l360 385h185l360 -385h-137l-315 217l-316 -217h-137z" />
<glyph unicode="&#xd6;" horiz-adv-x="2103" d="M123 795q0 178 66 330.5t185.5 261.5t294 171t382.5 62t382.5 -62t294 -171t186 -261.5t66.5 -330.5t-66.5 -330t-185.5 -261t-294 -171t-383 -62t-382.5 62t-294 171t-185.5 261t-66 330zM403 795q0 -174 81 -315.5t229.5 -223.5t337.5 -82q142 0 264 48t206 131 t131.5 197.5t47.5 244.5q0 131 -47.5 245.5t-131.5 197.5t-206 131t-264 48q-189 0 -337.5 -82t-229.5 -223.5t-81 -316.5zM725 1849v197h246v-197h-246zM1135 1849v197h245v-197h-245z" />
<glyph unicode="&#xd7;" horiz-adv-x="1331" d="M123 90l469 469l-469 469l74 74l469 -469l469 469l73 -74l-469 -469l469 -469l-73 -74l-469 469l-469 -469z" />
<glyph unicode="&#xd8;" horiz-adv-x="2103" d="M123 795q0 178 66 330.5t185.5 261.5t294 171t382.5 62q105 0 211 -16l67 202l105 -32l-66 -195q285 -78 448.5 -288t163.5 -496q0 -178 -66.5 -330t-185.5 -261t-294 -171t-383 -62q-95 0 -211 17l-68 -203l-100 31l65 196q-286 76 -450 286t-164 497zM403 795 q0 -201 108 -357.5t292 -222.5l393 1188q-63 14 -145 14q-189 0 -337.5 -82t-229.5 -223.5t-81 -316.5zM905 188q66 -14 146 -14q142 0 264 48t206 131t131.5 197.5t47.5 244.5q0 202 -107.5 357.5t-292.5 221.5z" />
<glyph unicode="&#xd9;" horiz-adv-x="1875" d="M184 657v934h267v-934q0 -88 11.5 -157t32 -119.5t53.5 -87t71.5 -59.5t91 -36.5t105.5 -18.5t122 -5t122 5t105.5 18.5t91 36.5t71.5 59.5t53.5 87t32 119.5t11.5 157v934h267v-934q0 -686 -754 -686t-754 686zM524 2136h307l238 -385h-137z" />
<glyph unicode="&#xda;" horiz-adv-x="1875" d="M184 657v934h267v-934q0 -88 11.5 -157t32 -119.5t53.5 -87t71.5 -59.5t91 -36.5t105.5 -18.5t122 -5t122 5t105.5 18.5t91 36.5t71.5 59.5t53.5 87t32 119.5t11.5 157v934h267v-934q0 -686 -754 -686t-754 686zM758 1751l237 385h308l-408 -385h-137z" />
<glyph unicode="&#xdb;" horiz-adv-x="1875" d="M184 657v934h267v-934q0 -88 11.5 -157t32 -119.5t53.5 -87t71.5 -59.5t91 -36.5t105.5 -18.5t122 -5t122 5t105.5 18.5t91 36.5t71.5 59.5t53.5 87t32 119.5t11.5 157v934h267v-934q0 -686 -754 -686t-754 686zM463 1751l360 385h185l360 -385h-137l-316 217l-315 -217 h-137z" />
<glyph unicode="&#xdc;" horiz-adv-x="1875" d="M184 657v934h267v-934q0 -88 11.5 -157t32 -119.5t53.5 -87t71.5 -59.5t91 -36.5t105.5 -18.5t122 -5t122 5t105.5 18.5t91 36.5t71.5 59.5t53.5 87t32 119.5t11.5 157v934h267v-934q0 -686 -754 -686t-754 686zM649 1849v197h246v-197h-246zM1059 1849v197h246v-197 h-246z" />
<glyph unicode="&#xdd;" horiz-adv-x="1744" d="M20 1591h308l544 -620l545 620h307l-718 -819v-772h-267v772zM690 1751l238 385h307l-408 -385h-137z" />
<glyph unicode="&#xdf;" horiz-adv-x="1411" d="M184 0v1178q0 68 13 127t49 118.5t93 101.5t151.5 68.5t218.5 26.5q122 0 219.5 -26t160 -69t104 -101t58.5 -117.5t17 -124.5q0 -71 -23.5 -129t-61 -93.5t-83 -62t-91 -38.5t-83 -19t-60.5 -8l-24 -1q10 -1 26.5 -4.5t65 -18.5t93 -35.5t98 -59.5t92.5 -87t65.5 -120.5 t26.5 -157.5q0 -173 -113 -275t-285 -102q-65 0 -120.5 17t-88.5 41t-57 48t-33 41l-10 17l49 182q2 -7 5.5 -18t19 -39t36 -49.5t57.5 -39t81 -17.5q91 0 145 55.5t54 150.5q0 77 -26 137.5t-69 99t-103.5 64t-125.5 36t-139 10.5v153q182 0 302 81t120 204 q0 128 -73.5 210.5t-217.5 82.5q-149 0 -218 -83t-69 -218v-1137h-246z" />
<glyph unicode="&#xe0;" horiz-adv-x="1441" d="M102 827q2 7 7 19t25.5 47.5t47 67t73.5 70.5t102.5 67.5t137.5 47.5t175 19q124 0 221.5 -32t158 -88.5t91 -131.5t28.5 -163l-12 -478q-3 -118 90 -118q44 0 80.5 25.5t50.5 50.5l15 26l49 -182q-3 -4 -9.5 -11t-29.5 -25t-51 -31.5t-75.5 -24.5t-100.5 -11 q-108 0 -181 63t-73 202v194q-3 -10 -10 -26.5t-30.5 -64t-50.5 -91t-71.5 -96.5t-92.5 -91t-114 -64t-135 -26q-124 0 -199.5 71t-75.5 179q0 61 21.5 121t77.5 125t141.5 118t224 96.5t314.5 63.5q-2 1 0.5 13.5t-2.5 34t-11 46.5t-24.5 50.5t-43 46.5t-67 34t-96.5 13 t-101 -12.5t-79 -33t-58 -45t-41 -48.5t-25.5 -44.5t-13.5 -33.5l-4 -12zM276 1681h308l237 -385h-137zM403 272q0 -58 28.5 -88t80.5 -30q62 0 126 38.5t113.5 95.5t89.5 120t61 116.5t20 79.5v72q-131 -33 -229 -77.5t-151.5 -86t-86.5 -89t-42.5 -82t-9.5 -69.5z" />
<glyph unicode="&#xe1;" horiz-adv-x="1441" d="M102 827q2 7 7 19t25.5 47.5t47 67t73.5 70.5t102.5 67.5t137.5 47.5t175 19q124 0 221.5 -32t158 -88.5t91 -131.5t28.5 -163l-12 -478q-3 -118 90 -118q44 0 80.5 25.5t50.5 50.5l15 26l49 -182q-3 -4 -9.5 -11t-29.5 -25t-51 -31.5t-75.5 -24.5t-100.5 -11 q-108 0 -181 63t-73 202v194q-3 -10 -10 -26.5t-30.5 -64t-50.5 -91t-71.5 -96.5t-92.5 -91t-114 -64t-135 -26q-124 0 -199.5 71t-75.5 179q0 61 21.5 121t77.5 125t141.5 118t224 96.5t314.5 63.5q-2 1 0.5 13.5t-2.5 34t-11 46.5t-24.5 50.5t-43 46.5t-67 34t-96.5 13 t-101 -12.5t-79 -33t-58 -45t-41 -48.5t-25.5 -44.5t-13.5 -33.5l-4 -12zM403 272q0 -58 28.5 -88t80.5 -30q62 0 126 38.5t113.5 95.5t89.5 120t61 116.5t20 79.5v72q-131 -33 -229 -77.5t-151.5 -86t-86.5 -89t-42.5 -82t-9.5 -69.5zM551 1296l237 385h308l-408 -385h-137 z" />
<glyph unicode="&#xe2;" horiz-adv-x="1441" d="M102 827q2 7 7 19t25.5 47.5t47 67t73.5 70.5t102.5 67.5t137.5 47.5t175 19q124 0 221.5 -32t158 -88.5t91 -131.5t28.5 -163l-12 -478q-3 -118 90 -118q44 0 80.5 25.5t50.5 50.5l15 26l49 -182q-3 -4 -9.5 -11t-29.5 -25t-51 -31.5t-75.5 -24.5t-100.5 -11 q-108 0 -181 63t-73 202v194q-3 -10 -10 -26.5t-30.5 -64t-50.5 -91t-71.5 -96.5t-92.5 -91t-114 -64t-135 -26q-124 0 -199.5 71t-75.5 179q0 61 21.5 121t77.5 125t141.5 118t224 96.5t314.5 63.5q-2 1 0.5 13.5t-2.5 34t-11 46.5t-24.5 50.5t-43 46.5t-67 34t-96.5 13 t-101 -12.5t-79 -33t-58 -45t-41 -48.5t-25.5 -44.5t-13.5 -33.5l-4 -12zM236 1296l360 385h184l361 -385h-137l-316 217l-315 -217h-137zM403 272q0 -58 28.5 -88t80.5 -30q62 0 126 38.5t113.5 95.5t89.5 120t61 116.5t20 79.5v72q-131 -33 -229 -77.5t-151.5 -86 t-86.5 -89t-42.5 -82t-9.5 -69.5z" />
<glyph unicode="&#xe3;" horiz-adv-x="1441" d="M102 827q2 7 7 19t25.5 47.5t47 67t73.5 70.5t102.5 67.5t137.5 47.5t175 19q124 0 221.5 -32t158 -88.5t91 -131.5t28.5 -163l-12 -478q-3 -118 90 -118q44 0 80.5 25.5t50.5 50.5l15 26l49 -182q-3 -4 -9.5 -11t-29.5 -25t-51 -31.5t-75.5 -24.5t-100.5 -11 q-108 0 -181 63t-73 202v194q-3 -10 -10 -26.5t-30.5 -64t-50.5 -91t-71.5 -96.5t-92.5 -91t-114 -64t-135 -26q-124 0 -199.5 71t-75.5 179q0 61 21.5 121t77.5 125t141.5 118t224 96.5t314.5 63.5q-2 1 0.5 13.5t-2.5 34t-11 46.5t-24.5 50.5t-43 46.5t-67 34t-96.5 13 t-101 -12.5t-79 -33t-58 -45t-41 -48.5t-25.5 -44.5t-13.5 -33.5l-4 -12zM315 1423q2 8 6 21.5t21.5 47.5t39.5 59.5t62 47t88 21.5q52 0 99 -18t76 -39.5t68.5 -39.5t78.5 -18q29 0 52.5 12t37 28.5t23 33.5t13.5 29l3 12l82 -74q-2 -8 -6 -21t-21.5 -47t-39.5 -60t-62 -47 t-88 -21q-53 0 -100 18t-75.5 39t-68 39t-80.5 18q-27 0 -50.5 -11.5t-37 -28.5t-23 -34t-13.5 -28l-3 -12zM403 272q0 -58 28.5 -88t80.5 -30q62 0 126 38.5t113.5 95.5t89.5 120t61 116.5t20 79.5v72q-131 -33 -229 -77.5t-151.5 -86t-86.5 -89t-42.5 -82t-9.5 -69.5z" />
<glyph unicode="&#xe4;" horiz-adv-x="1441" d="M102 827q2 7 7 19t25.5 47.5t47 67t73.5 70.5t102.5 67.5t137.5 47.5t175 19q124 0 221.5 -32t158 -88.5t91 -131.5t28.5 -163l-12 -478q-3 -118 90 -118q44 0 80.5 25.5t50.5 50.5l15 26l49 -182q-3 -4 -9.5 -11t-29.5 -25t-51 -31.5t-75.5 -24.5t-100.5 -11 q-108 0 -181 63t-73 202v194q-3 -10 -10 -26.5t-30.5 -64t-50.5 -91t-71.5 -96.5t-92.5 -91t-114 -64t-135 -26q-124 0 -199.5 71t-75.5 179q0 61 21.5 121t77.5 125t141.5 118t224 96.5t314.5 63.5q-2 1 0.5 13.5t-2.5 34t-11 46.5t-24.5 50.5t-43 46.5t-67 34t-96.5 13 t-101 -12.5t-79 -33t-58 -45t-41 -48.5t-25.5 -44.5t-13.5 -33.5l-4 -12zM360 1395v196h246v-196h-246zM403 272q0 -58 28.5 -88t80.5 -30q62 0 126 38.5t113.5 95.5t89.5 120t61 116.5t20 79.5v72q-131 -33 -229 -77.5t-151.5 -86t-86.5 -89t-42.5 -82t-9.5 -69.5z M770 1395v196h246v-196h-246z" />
<glyph unicode="&#xe5;" horiz-adv-x="1441" d="M102 827q2 7 7 19t25.5 47.5t47 67t73.5 70.5t102.5 67.5t137.5 47.5t175 19q124 0 221.5 -32t158 -88.5t91 -131.5t28.5 -163l-12 -478q-3 -118 90 -118q44 0 80.5 25.5t50.5 50.5l15 26l49 -182q-3 -4 -9.5 -11t-29.5 -25t-51 -31.5t-75.5 -24.5t-100.5 -11 q-108 0 -181 63t-73 202v194q-3 -10 -10 -26.5t-30.5 -64t-50.5 -91t-71.5 -96.5t-92.5 -91t-114 -64t-135 -26q-124 0 -199.5 71t-75.5 179q0 61 21.5 121t77.5 125t141.5 118t224 96.5t314.5 63.5q-2 1 0.5 13.5t-2.5 34t-11 46.5t-24.5 50.5t-43 46.5t-67 34t-96.5 13 t-101 -12.5t-79 -33t-58 -45t-41 -48.5t-25.5 -44.5t-13.5 -33.5l-4 -12zM403 272q0 -58 28.5 -88t80.5 -30q62 0 126 38.5t113.5 95.5t89.5 120t61 116.5t20 79.5v72q-131 -33 -229 -77.5t-151.5 -86t-86.5 -89t-42.5 -82t-9.5 -69.5zM465 1493q0 93 65.5 160t157.5 67 q97 0 162 -64.5t65 -162.5q0 -91 -67.5 -157t-159.5 -66q-91 0 -157 66t-66 157zM590 1495q0 -43 28.5 -71.5t71.5 -28.5q42 0 71.5 30t29.5 70q0 39 -29.5 69.5t-71.5 30.5q-43 0 -71.5 -28.5t-28.5 -71.5z" />
<glyph unicode="&#xe6;" horiz-adv-x="2205" d="M102 827q2 7 7 19t25.5 47.5t47 67t73.5 70.5t102.5 67.5t137.5 47.5t175 19q139 0 246 -51t165 -131q72 82 183 132t247 50q126 0 224 -33.5t154 -87t94 -118t51 -129t18.5 -118t2.5 -87.5l-3 -33l-868 21v-11q0 -190 83.5 -302.5t250.5 -112.5q63 0 114 16.5t82.5 43 t55 58t34 63.5t17 58.5t7.5 42.5l1 17l254 -74q-2 -9 -5.5 -23.5t-21 -57t-41 -81t-69.5 -85.5t-102.5 -81t-143.5 -57t-189 -23q-104 0 -194 29t-164.5 87.5t-125 155t-66.5 222.5q-4 -10 -11.5 -28t-33.5 -69.5t-55.5 -98t-77.5 -103.5t-100 -98t-122 -69t-143 -28 q-124 0 -199.5 71t-75.5 179q0 61 21.5 121t77.5 125t141.5 118t224 96.5t314.5 63.5q-2 1 0.5 13.5t-2.5 34t-11 46.5t-24.5 50.5t-43 46.5t-67 34t-96.5 13t-101 -12.5t-79 -33t-58 -45t-41 -48.5t-25.5 -44.5t-13.5 -33.5l-4 -12zM403 272q0 -58 28.5 -88t80.5 -30 q62 0 126 38.5t113.5 95.5t89.5 120t61 116.5t20 79.5v72q-131 -33 -229 -77.5t-151.5 -86t-86.5 -89t-42.5 -82t-9.5 -69.5zM1188 664l604 28q0 6 -0.5 16.5t-5.5 40.5t-15 57.5t-32 61.5t-52 58t-79.5 40.5t-110.5 16.5q-275 0 -309 -319z" />
<glyph unicode="&#xe7;" horiz-adv-x="1488" d="M123 569q0 127 42.5 236.5t121 189t196 125t260.5 45.5q134 0 238.5 -34.5t167.5 -87t105 -124.5t59 -138.5t20 -137.5l-254 -74q5 63 -2.5 121t-31.5 112t-63 94t-100 63.5t-139 23.5q-171 0 -264.5 -113.5t-93.5 -300.5q0 -195 110.5 -305t288.5 -110q67 0 121 16.5 t87 43t57.5 58t36 63.5t18 58.5t7.5 42.5l1 17l254 -74q-2 -9 -5.5 -23.5t-21.5 -57t-43.5 -81t-74 -85.5t-108.5 -81t-153 -57t-202 -23l-37 -104q40 35 110 35q72 0 117 -44t45 -126q0 -100 -77 -158.5t-193 -58.5q-45 0 -87 10t-69.5 24t-48 28t-30.5 24l-9 10l37 139 q3 -5 8 -13t24 -28t40 -35.5t55 -28t70 -12.5q63 0 100 28t37 77q0 42 -23.5 66t-62.5 24q-15 0 -28.5 -4.5t-22.5 -11t-16 -13.5t-10 -11l-3 -5l-88 6l66 188q-111 13 -208 59t-171 119t-117 180t-43 234z" />
<glyph unicode="&#xe8;" horiz-adv-x="1488" d="M123 569q0 128 42.5 237t122 188.5t199.5 125t267 45.5q103 0 188 -21.5t143 -57.5t103.5 -83t71 -99t43.5 -104t24 -99t8.5 -83t0.5 -58l-1 -21l-950 20q3 -190 113.5 -297.5t285.5 -107.5q67 0 121 16.5t87.5 43t58 58t36 63.5t18 58.5t7.5 42.5v17l254 -74 q-2 -9 -5.5 -23.5t-21.5 -57t-43 -81t-74 -85.5t-109.5 -81t-154.5 -57t-204 -23q-126 0 -239 40t-201 114t-139.5 189t-51.5 255zM348 1681h307l238 -385h-137zM395 684l680 10q0 6 -1.5 16.5t-9 40.5t-20 57t-38.5 60.5t-59.5 57.5t-87.5 40.5t-120 16.5q-139 0 -228 -80 t-116 -219z" />
<glyph unicode="&#xe9;" horiz-adv-x="1488" d="M123 569q0 128 42.5 237t122 188.5t199.5 125t267 45.5q103 0 188 -21.5t143 -57.5t103.5 -83t71 -99t43.5 -104t24 -99t8.5 -83t0.5 -58l-1 -21l-950 20q3 -190 113.5 -297.5t285.5 -107.5q67 0 121 16.5t87.5 43t58 58t36 63.5t18 58.5t7.5 42.5v17l254 -74 q-2 -9 -5.5 -23.5t-21.5 -57t-43 -81t-74 -85.5t-109.5 -81t-154.5 -57t-204 -23q-126 0 -239 40t-201 114t-139.5 189t-51.5 255zM395 684l680 10q0 6 -1.5 16.5t-9 40.5t-20 57t-38.5 60.5t-59.5 57.5t-87.5 40.5t-120 16.5q-139 0 -228 -80t-116 -219zM623 1296l237 385 h307l-407 -385h-137z" />
<glyph unicode="&#xea;" horiz-adv-x="1488" d="M123 569q0 128 42.5 237t122 188.5t199.5 125t267 45.5q103 0 188 -21.5t143 -57.5t103.5 -83t71 -99t43.5 -104t24 -99t8.5 -83t0.5 -58l-1 -21l-950 20q3 -190 113.5 -297.5t285.5 -107.5q67 0 121 16.5t87.5 43t58 58t36 63.5t18 58.5t7.5 42.5v17l254 -74 q-2 -9 -5.5 -23.5t-21.5 -57t-43 -81t-74 -85.5t-109.5 -81t-154.5 -57t-204 -23q-126 0 -239 40t-201 114t-139.5 189t-51.5 255zM307 1296l361 385h184l360 -385h-137l-315 217l-316 -217h-137zM395 684l680 10q0 6 -1.5 16.5t-9 40.5t-20 57t-38.5 60.5t-59.5 57.5 t-87.5 40.5t-120 16.5q-139 0 -228 -80t-116 -219z" />
<glyph unicode="&#xeb;" horiz-adv-x="1488" d="M123 569q0 128 42.5 237t122 188.5t199.5 125t267 45.5q103 0 188 -21.5t143 -57.5t103.5 -83t71 -99t43.5 -104t24 -99t8.5 -83t0.5 -58l-1 -21l-950 20q3 -190 113.5 -297.5t285.5 -107.5q67 0 121 16.5t87.5 43t58 58t36 63.5t18 58.5t7.5 42.5v17l254 -74 q-2 -9 -5.5 -23.5t-21.5 -57t-43 -81t-74 -85.5t-109.5 -81t-154.5 -57t-204 -23q-126 0 -239 40t-201 114t-139.5 189t-51.5 255zM395 684l680 10q0 6 -1.5 16.5t-9 40.5t-20 57t-38.5 60.5t-59.5 57.5t-87.5 40.5t-120 16.5q-139 0 -228 -80t-116 -219zM432 1395v196h246 v-196h-246zM842 1395v196h245v-196h-245z" />
<glyph unicode="&#xec;" horiz-adv-x="614" d="M-117 1681h307l238 -385h-137zM184 0v1137h246v-1137h-246z" />
<glyph unicode="&#xed;" horiz-adv-x="614" d="M184 0v1137h246v-1137h-246zM209 1296l237 385h308l-408 -385h-137z" />
<glyph unicode="&#xee;" horiz-adv-x="614" d="M-145 1296l360 385h184l361 -385h-137l-316 217l-315 -217h-137zM184 0v1137h246v-1137h-246z" />
<glyph unicode="&#xef;" horiz-adv-x="614" d="M-20 1395v196h245v-196h-245zM184 0v1137h246v-1137h-246zM389 1395v196h246v-196h-246z" />
<glyph unicode="&#xf1;" horiz-adv-x="1531" d="M184 0v1137h119l105 -338q1 8 2.5 21t13 51t29 72.5t53.5 77t82.5 72.5t119.5 51t162 21q478 0 478 -460v-705h-246v700q0 141 -83 212t-239 71q-64 0 -116.5 -13.5t-88 -35t-63 -50.5t-42.5 -57.5t-24.5 -59t-12.5 -52t-3 -39.5v-676h-246zM391 1423q2 8 6 21.5 t21.5 47.5t39.5 59.5t62 47t88 21.5q52 0 99 -18t76 -39.5t68.5 -39.5t78.5 -18q29 0 52.5 12t37 28.5t23 33.5t13.5 29l3 12l82 -74q-2 -8 -6 -21t-21.5 -47t-39.5 -60t-62 -47t-88 -21q-53 0 -100 18t-75.5 39t-68 39t-80.5 18q-27 0 -50.5 -11.5t-37 -28.5t-23 -34 t-13.5 -28l-3 -12z" />
<glyph unicode="&#xf2;" horiz-adv-x="1536" d="M123 569q0 125 44.5 234t125.5 189.5t203.5 126.5t271.5 46t271.5 -46t203.5 -126.5t125.5 -189.5t44.5 -234q0 -126 -44 -235t-125.5 -190t-204 -127t-271.5 -46t-271.5 46t-204 127t-125.5 190t-44 235zM356 1681h308l237 -385h-137zM385 569q0 -187 103 -301t280 -114 q174 0 278.5 114.5t104.5 300.5t-104.5 300t-278.5 114q-177 0 -280 -113.5t-103 -300.5z" />
<glyph unicode="&#xf3;" horiz-adv-x="1536" d="M123 569q0 125 44.5 234t125.5 189.5t203.5 126.5t271.5 46t271.5 -46t203.5 -126.5t125.5 -189.5t44.5 -234q0 -126 -44 -235t-125.5 -190t-204 -127t-271.5 -46t-271.5 46t-204 127t-125.5 190t-44 235zM385 569q0 -187 103 -301t280 -114q174 0 278.5 114.5 t104.5 300.5t-104.5 300t-278.5 114q-177 0 -280 -113.5t-103 -300.5zM631 1296l237 385h308l-408 -385h-137z" />
<glyph unicode="&#xf4;" horiz-adv-x="1536" d="M123 569q0 125 44.5 234t125.5 189.5t203.5 126.5t271.5 46t271.5 -46t203.5 -126.5t125.5 -189.5t44.5 -234q0 -126 -44 -235t-125.5 -190t-204 -127t-271.5 -46t-271.5 46t-204 127t-125.5 190t-44 235zM315 1296l361 385h184l361 -385h-138l-315 217l-315 -217h-138z M385 569q0 -187 103 -301t280 -114q174 0 278.5 114.5t104.5 300.5t-104.5 300t-278.5 114q-177 0 -280 -113.5t-103 -300.5z" />
<glyph unicode="&#xf6;" horiz-adv-x="1536" d="M123 569q0 125 44.5 234t125.5 189.5t203.5 126.5t271.5 46t271.5 -46t203.5 -126.5t125.5 -189.5t44.5 -234q0 -126 -44 -235t-125.5 -190t-204 -127t-271.5 -46t-271.5 46t-204 127t-125.5 190t-44 235zM385 569q0 -187 103 -301t280 -114q174 0 278.5 114.5 t104.5 300.5t-104.5 300t-278.5 114q-177 0 -280 -113.5t-103 -300.5zM440 1395v196h246v-196h-246zM850 1395v196h246v-196h-246z" />
<glyph unicode="&#xf7;" horiz-adv-x="1331" d="M41 483v103h1249v-103h-1249zM573 0v229h185v-229h-185zM573 842v229h185v-229h-185z" />
<glyph unicode="&#xf8;" horiz-adv-x="1536" d="M123 569q0 125 44.5 234t125.5 189.5t203.5 126.5t271.5 46q65 0 137 -10l90 272l105 -32l-88 -267q190 -61 295.5 -211t105.5 -348q0 -126 -44 -235t-125.5 -190t-204 -127t-271.5 -46q-56 0 -139 11l-90 -273l-101 31l88 266q-191 62 -297 213t-106 350zM385 569 q0 -131 53 -228.5t150 -147.5l258 784q-38 6 -78 6q-177 0 -280 -113.5t-103 -300.5zM688 160q40 -6 80 -6q174 0 278.5 114.5t104.5 300.5q0 130 -53.5 228t-149.5 145z" />
<glyph unicode="&#xf9;" horiz-adv-x="1531" d="M184 432v705h246v-701q0 -141 83 -211.5t239 -70.5q64 0 116.5 13.5t88 35t63 50.5t42.5 57.5t24.5 59t12.5 52t3 39.5v676h246v-1137h-119l-105 338q-1 -8 -2.5 -21t-13 -51t-29 -73t-53.5 -77t-82.5 -72.5t-119.5 -51.5t-162 -21q-478 0 -478 461zM375 1681h307 l238 -385h-138z" />
<glyph unicode="&#xfa;" horiz-adv-x="1531" d="M184 432v705h246v-701q0 -141 83 -211.5t239 -70.5q64 0 116.5 13.5t88 35t63 50.5t42.5 57.5t24.5 59t12.5 52t3 39.5v676h246v-1137h-119l-105 338q-1 -8 -2.5 -21t-13 -51t-29 -73t-53.5 -77t-82.5 -72.5t-119.5 -51.5t-162 -21q-478 0 -478 461zM649 1296l238 385 h307l-408 -385h-137z" />
<glyph unicode="&#xfb;" horiz-adv-x="1531" d="M184 432v705h246v-701q0 -141 83 -211.5t239 -70.5q64 0 116.5 13.5t88 35t63 50.5t42.5 57.5t24.5 59t12.5 52t3 39.5v676h246v-1137h-119l-105 338q-1 -8 -2.5 -21t-13 -51t-29 -73t-53.5 -77t-82.5 -72.5t-119.5 -51.5t-162 -21q-478 0 -478 461zM334 1296l360 385 h185l360 -385h-137l-316 217l-315 -217h-137z" />
<glyph unicode="&#xfc;" horiz-adv-x="1531" d="M184 432v705h246v-701q0 -141 83 -211.5t239 -70.5q64 0 116.5 13.5t88 35t63 50.5t42.5 57.5t24.5 59t12.5 52t3 39.5v676h246v-1137h-119l-105 338q-1 -8 -2.5 -21t-13 -51t-29 -73t-53.5 -77t-82.5 -72.5t-119.5 -51.5t-162 -21q-478 0 -478 461zM459 1395v196h246 v-196h-246zM868 1395v196h246v-196h-246z" />
<glyph unicode="&#xfd;" horiz-adv-x="1302" d="M20 1137h283l359 -805l342 805h278l-551 -1137q-124 -254 -228.5 -369.5t-238.5 -115.5q-43 0 -81.5 9.5t-63.5 23.5t-44 28t-27 24l-9 9l29 182q2 -5 6 -11.5t17 -21t28.5 -26t40.5 -20.5t53 -9q74 0 153.5 81.5t137.5 213.5l33 74zM487 1296l238 385h307l-407 -385 h-138z" />
<glyph unicode="&#xff;" horiz-adv-x="1302" d="M20 1137h283l359 -805l342 805h278l-551 -1137q-124 -254 -228.5 -369.5t-238.5 -115.5q-43 0 -81.5 9.5t-63.5 23.5t-44 28t-27 24l-9 9l29 182q2 -5 6 -11.5t17 -21t28.5 -26t40.5 -20.5t53 -9q74 0 153.5 81.5t137.5 213.5l33 74zM297 1395v196h246v-196h-246z M707 1395v196h245v-196h-245z" />
<glyph unicode="&#x152;" horiz-adv-x="2392" d="M123 795q0 179 59 331t167 261.5t267.5 171t352.5 61.5q126 0 248 -29h1034v-174h-695q111 -97 177 -233.5t79 -298.5h381v-174h-381q-28 -338 -256 -537h754v-174h-1093q-122 -29 -248 -29q-193 0 -352.5 62t-267.5 171t-167 261t-59 330zM403 795q0 -175 69 -315.5 t199 -223t298 -82.5q233 0 385.5 150t177.5 387h-297v174h297q-27 235 -179 383.5t-384 148.5q-168 0 -298 -82t-199 -223t-69 -317z" />
<glyph unicode="&#x153;" horiz-adv-x="2435" d="M123 569q0 126 41 234t118.5 189t197 127t268.5 46q159 0 285 -59.5t204 -161.5q77 102 200.5 161.5t282.5 59.5q130 0 231.5 -33.5t159.5 -87t97.5 -118t53 -129t19.5 -118t3 -87.5l-3 -33l-909 21v-31q4 -188 106 -291.5t273 -103.5q67 0 120 16.5t84.5 43t54 58 t31.5 63.5t13.5 58.5t3.5 42.5v17l254 -74q-1 -9 -4 -23.5t-19 -57t-39.5 -81t-70 -85.5t-105.5 -81t-151.5 -57t-202.5 -23q-145 0 -271 59.5t-208 166.5q-77 -106 -204 -166t-289 -60q-149 0 -268.5 46t-197 127t-118.5 189.5t-41 235.5zM385 569q0 -189 94.5 -302 t268.5 -113q171 0 266.5 113.5t95.5 301.5v19q-5 180 -100 287.5t-262 107.5q-175 0 -269 -112.5t-94 -301.5zM1378 664l643 28q0 6 -0.5 16.5t-6 40.5t-16 57.5t-33.5 61.5t-55.5 58t-85 40.5t-118.5 16.5q-144 0 -226 -85t-102 -234z" />
<glyph unicode="&#x178;" horiz-adv-x="1744" d="M20 1591h308l544 -620l545 620h307l-718 -819v-772h-267v772zM545 1849v197h246v-197h-246zM954 1849v197h246v-197h-246z" />
<glyph unicode="&#x2c6;" horiz-adv-x="2465" d="M778 1296l361 385h184l360 -385h-137l-315 217l-316 -217h-137z" />
<glyph unicode="&#x2dc;" horiz-adv-x="2465" d="M858 1423q2 8 6 21.5t21.5 47.5t39.5 59.5t62 47t88 21.5q52 0 99 -18t76 -39.5t68.5 -39.5t78.5 -18q29 0 52.5 12t37 28.5t23 33.5t12.5 29l4 12l82 -74q-2 -8 -6 -21t-21.5 -47t-39.5 -60t-62 -47t-88 -21q-53 0 -100 18t-75.5 39t-68 39t-80.5 18q-27 0 -50.5 -11.5 t-37 -28.5t-23 -34t-12.5 -28l-4 -12z" />
<glyph unicode="&#x2000;" horiz-adv-x="1087" />
<glyph unicode="&#x2001;" horiz-adv-x="2175" />
<glyph unicode="&#x2002;" horiz-adv-x="1087" />
<glyph unicode="&#x2003;" horiz-adv-x="2175" />
<glyph unicode="&#x2004;" horiz-adv-x="725" />
<glyph unicode="&#x2005;" horiz-adv-x="543" />
<glyph unicode="&#x2006;" horiz-adv-x="362" />
<glyph unicode="&#x2007;" horiz-adv-x="362" />
<glyph unicode="&#x2008;" horiz-adv-x="271" />
<glyph unicode="&#x2009;" horiz-adv-x="435" />
<glyph unicode="&#x200a;" horiz-adv-x="120" />
<glyph unicode="&#x2010;" horiz-adv-x="1028" d="M82 532v154h864v-154h-864z" />
<glyph unicode="&#x2011;" horiz-adv-x="1028" d="M82 532v154h864v-154h-864z" />
<glyph unicode="&#x2012;" horiz-adv-x="1028" d="M82 532v154h864v-154h-864z" />
<glyph unicode="&#x2013;" horiz-adv-x="1044" d="M41 512v102h963v-102h-963z" />
<glyph unicode="&#x2014;" horiz-adv-x="1632" d="M41 512v102h1550v-102h-1550z" />
<glyph unicode="&#x2018;" horiz-adv-x="634" d="M184 985v246q0 71 17 139t41 115t48 84t41 55l17 18l180 -53q-7 -4 -19.5 -12.5t-46.5 -38t-61.5 -62.5t-56 -85.5t-39.5 -108.5h146v-297h-267z" />
<glyph unicode="&#x2019;" horiz-adv-x="634" d="M106 1038q7 4 20 13t46.5 38.5t61.5 62.5t56.5 85.5t39.5 108.5h-146v296h267v-245q0 -71 -17 -139t-41 -115.5t-48 -84.5t-41 -55l-17 -18z" />
<glyph unicode="&#x201a;" horiz-adv-x="634" d="M106 -307q7 4 20 12.5t46.5 38t61.5 62.5t56.5 85.5t39.5 108.5h-146v297h267v-246q0 -71 -17 -139t-41 -115t-48 -84t-41 -55l-17 -18z" />
<glyph unicode="&#x201c;" horiz-adv-x="1146" d="M106 983v246q0 71 17 139t41 115t48 84t41 55l17 18l181 -53q-7 -4 -20 -12.5t-46.5 -38t-61.5 -62.5t-56.5 -85.5t-39.5 -108.5h146v-297h-267zM618 983v246q0 71 17 139t41 115t48 84t41 55l17 18l181 -53q-7 -4 -20 -12.5t-46.5 -38t-61.5 -62.5t-56.5 -85.5 t-39.5 -108.5h146v-297h-267z" />
<glyph unicode="&#x201d;" horiz-adv-x="1146" d="M106 1036q7 4 20 12.5t46.5 38t61.5 62.5t56.5 85.5t39.5 108.5h-146v297h267v-245q0 -71 -17 -139t-41 -115.5t-48 -84.5t-41 -55l-17 -18zM618 1036q7 4 20 12.5t46.5 38t61.5 62.5t56.5 85.5t39.5 108.5h-146v297h267v-245q0 -71 -17 -139t-41 -115.5t-48 -84.5 t-41 -55l-17 -18z" />
<glyph unicode="&#x201e;" horiz-adv-x="1146" d="M106 -307q7 4 20 12.5t46.5 38t61.5 62.5t56.5 85.5t39.5 108.5h-146v297h267v-246q0 -71 -17 -139t-41 -115t-48 -84t-41 -55l-17 -18zM618 -307q7 4 20 12.5t46.5 38t61.5 62.5t56.5 85.5t39.5 108.5h-146v297h267v-246q0 -71 -17 -139t-41 -115t-48 -84t-41 -55 l-17 -18z" />
<glyph unicode="&#x2022;" horiz-adv-x="1323" d="M61 633l531 -529l-25 5l-499 501zM66 776l2 35l696 -698l-31 -9zM92 905q20 39 21 41l786 -788l-37 -19zM147 1022l27 37l838 -840q-16 -16 -35 -24zM190 326l82 -80l-39 33q-22 17 -43 47zM215 1110l25 20l20 25l852 -854l-22 -20l-21 -23zM301 1186l59 45l824 -823 q-9 -26 -45 -62zM403 1249q9 4 25 12t29.5 13t29.5 8l750 -750q-4 -10 -14.5 -40.5t-18.5 -45.5zM526 1294q59 12 113 9l623 -623q0 -66 -13 -113zM670 1309q85 0 176 -33l391 -387q24 -75 27 -176zM870 1272q120 -42 215 -142q109 -109 146 -219z" />
<glyph unicode="&#x2026;" horiz-adv-x="1576" d="M184 0v297h267v-297h-267zM655 0v276h267v-276h-267zM1126 0v256h267v-256h-267z" />
<glyph unicode="&#x202f;" horiz-adv-x="435" />
<glyph unicode="&#x2039;" horiz-adv-x="677" d="M61 567l371 449h184l-309 -449l309 -448h-184z" />
<glyph unicode="&#x203a;" horiz-adv-x="677" d="M61 119l310 448l-310 449h185l370 -449l-370 -448h-185z" />
<glyph unicode="&#x205f;" horiz-adv-x="543" />
<glyph unicode="&#x20ac;" d="M0 578v102h129q-6 56 -6 115q0 36 4 110h-86v103h100q52 281 235.5 446.5t469.5 165.5q150 0 268 -36.5t187 -94.5t118 -128.5t68 -140.5t28.5 -128t8.5 -94l-2 -37l-275 -82q1 7 1 19t-1 48.5t-5.5 72.5t-16.5 84t-30 90t-49 84.5t-71 72t-99 48.5t-130 19 q-183 0 -287.5 -108.5t-138.5 -300.5h686v-103h-698q-5 -87 -5 -110q0 -50 7 -115h655v-102h-641q38 -188 149 -296t293 -108q73 0 133.5 17.5t102 46.5t74 67t51 80t31 84t17 80t7 67t1.5 46l-1 18l274 -80q0 -8 -1 -22t-8.5 -57t-19 -84.5t-37 -98.5t-58.5 -105.5t-87 -98 t-119.5 -84.5t-158.5 -57t-201 -22q-286 0 -476 165t-247 442h-143z" />
<glyph unicode="&#x25fc;" horiz-adv-x="1136" d="M0 0v1137h1137v-1137h-1137z" />
</font>
</defs>
</svg>
