<svg width="1064" height="1776" viewBox="0 0 1064 1776" fill="none" xmlns="http://www.w3.org/2000/svg">
<path fill-rule="evenodd" clip-rule="evenodd" d="M989.626 0.636521C992.037 -0.710896 995.083 0.150805 996.43 2.56118C1051.52 101.107 1097.06 201.535 1030.67 309.772C991.542 373.569 947.043 418.423 877.156 448.294C851.459 459.278 825.321 466.494 797.912 471.062C790.113 472.362 776.52 473.008 764.069 473.6C761.066 473.743 758.129 473.883 755.356 474.028C808.296 490.369 852.198 511.247 888.107 560.968C931.37 620.87 923.244 689.067 889.704 745.186C856.251 801.16 797.148 845.903 736.731 859.846L736.711 859.851C736.696 859.854 736.676 859.86 736.65 859.867C736.597 859.881 736.527 859.9 736.438 859.925C736.26 859.976 736.03 860.044 735.747 860.132C735.181 860.306 734.448 860.542 733.567 860.833C731.807 861.415 729.51 862.202 726.872 863.132C721.597 864.99 715.016 867.399 708.733 869.842C704.161 871.619 699.813 873.389 696.258 874.963C698.328 875.552 700.371 876.055 702.461 876.57C704.484 877.068 706.553 877.578 708.734 878.187C716.203 880.273 723.813 883.326 732.278 890.839C761.266 916.565 783.865 950.122 798.396 985.747C828.453 1059.43 841.093 1155.38 798.926 1228.32C764.277 1288.25 709.006 1333.09 646.215 1360.57C641.061 1362.82 633.455 1364.51 625.722 1365.88C619.547 1366.97 612.934 1367.93 606.897 1368.8C605.266 1369.03 603.676 1369.26 602.149 1369.49C601.259 1369.62 600.397 1369.75 599.564 1369.87C611.619 1373.69 622.962 1378.18 632.632 1384.73C645.588 1393.5 655.398 1405.88 660.4 1424.77C679.439 1496.7 660.768 1563.19 621.5 1616.79C582.295 1670.31 522.514 1711.09 458.836 1732.13C349.529 1768.24 233.365 1779.96 118.83 1773.64C115.688 1773.47 112.482 1773.3 109.227 1773.14C93.1549 1772.32 75.8911 1771.45 59.1488 1768.89C38.9764 1765.8 19.0589 1760.21 2.22703 1748.99C-0.0706131 1747.46 -0.691482 1744.35 0.84028 1742.05C2.37204 1739.76 5.47639 1739.14 7.77403 1740.67C22.8909 1750.75 41.1872 1756.02 60.6608 1759C76.8552 1761.48 93.5166 1762.33 109.585 1763.14C112.878 1763.31 116.147 1763.48 119.381 1763.65C232.89 1769.92 347.775 1758.29 455.699 1722.63C517.631 1702.17 575.594 1662.53 613.433 1610.88C651.208 1559.32 668.881 1495.89 650.733 1427.33C646.367 1410.84 638.037 1400.47 627.024 1393.01C615.775 1385.39 601.591 1380.7 585.231 1376.02C583.913 1375.65 582.666 1375.22 581.629 1374.69C581.108 1374.42 580.486 1374.05 579.9 1373.54C579.336 1373.05 578.528 1372.19 578.099 1370.88C576.978 1367.46 579.34 1365.17 580.252 1364.48C581.267 1363.71 582.463 1363.24 583.362 1362.93C586.993 1361.68 593.642 1360.63 600.696 1359.59C602.28 1359.36 603.908 1359.13 605.565 1358.89C611.583 1358.02 617.977 1357.1 623.974 1356.03C631.732 1354.66 638.263 1353.13 642.207 1351.4C703.367 1324.65 756.85 1281.12 790.269 1223.31C830.18 1154.28 818.692 1061.98 789.137 989.524C775.122 955.165 753.365 922.924 725.641 898.318C718.617 892.085 712.504 889.623 706.044 887.818C704.394 887.358 702.639 886.925 700.794 886.471C695.531 885.174 689.535 883.697 683.17 880.869C682.453 880.55 681.182 879.816 680.414 878.264C679.568 876.554 679.837 874.9 680.26 873.845C680.641 872.894 681.21 872.224 681.561 871.852C681.952 871.439 682.366 871.092 682.729 870.815C684.088 869.778 686.086 868.702 688.182 867.681C692.533 865.561 698.744 862.997 705.109 860.522C711.509 858.034 718.191 855.588 723.549 853.7C728.735 851.872 733.061 850.43 734.482 850.102C792.039 836.82 848.949 793.885 881.12 740.056C913.205 686.372 920.315 622.642 880 566.822C842.398 514.758 795.779 495.802 735.894 478.692C734.584 478.318 733.377 477.909 732.387 477.438C731.895 477.204 731.301 476.882 730.733 476.44C730.229 476.046 729.304 475.221 728.792 473.855C728.162 472.174 728.431 470.42 729.291 469.062C729.991 467.956 730.923 467.349 731.428 467.06C732.468 466.466 733.659 466.14 734.545 465.936C738.205 465.091 744.909 464.593 752.211 464.183C756.04 463.969 760.12 463.774 764.235 463.578C776.516 462.992 789.109 462.391 796.268 461.198C822.992 456.744 848.349 449.732 873.226 439.099C940.785 410.223 983.833 367.012 1022.15 304.544C1085.24 201.671 1042.91 106.208 987.702 7.44061C986.354 5.03023 987.216 1.98394 989.626 0.636521ZM586.153 1365.77C586.155 1365.77 586.158 1365.77 586.163 1365.77C586.151 1365.77 586.148 1365.76 586.153 1365.77Z" fill="#FFD232"/>
</svg>
